<?xml version="1.0" encoding="utf-8"?>
<!-- Generator: Adobe Illustrator 27.5.0, SVG Export Plug-In . SVG Version: 6.00 Build 0)  -->
<svg version="1.1" xmlns="http://www.w3.org/2000/svg" xmlns:xlink="http://www.w3.org/1999/xlink" x="0px" y="0px"
	 viewBox="0 0 750 500" style="enable-background:new 0 0 750 500;" xml:space="preserve">
<g id="BACKGROUND">
	<linearGradient id="SVGID_1_" gradientUnits="userSpaceOnUse" x1="0" y1="250" x2="750" y2="250">
		<stop  offset="0.2286" style="stop-color:#2A3CA1"/>
		<stop  offset="0.9986" style="stop-color:#220459"/>
	</linearGradient>
	<rect style="fill:url(#SVGID_1_);" width="750" height="500"/>
	
		<linearGradient id="SVGID_00000153694301846550725470000002318246605485008812_" gradientUnits="userSpaceOnUse" x1="363.2726" y1="444.9276" x2="363.2726" y2="188.0431">
		<stop  offset="0.2286" style="stop-color:#2A3CA1"/>
		<stop  offset="0.9986" style="stop-color:#220459"/>
	</linearGradient>
	<path style="fill:url(#SVGID_00000153694301846550725470000002318246605485008812_);" d="M286.599,112.115
		c-49.647,24.823-115.445,18.336-168.075,37.752c-106.897,39.435,12.206,100.386,67.758,119.855
		c32.567,11.414,67.259,25.566,89.874,52.836c20.323,24.505,31.147,47.749,60.616,63.895c45.97,25.187,119.507,34.708,164.59,2.173
		c57.53-41.52,110.756-116.179,141.76-179.647c29.304-59.987-28.248-76.712-78.799-74.448
		C457.867,139.299,433.4,38.715,286.599,112.115z"/>
</g>
<g id="OBJECTS">
	<g>
		<defs>
			<rect id="SVGID_00000158741365842304817880000000760096325547095706_" width="750" height="500"/>
		</defs>
		<clipPath id="SVGID_00000018233470786714464350000013782437771096568195_">
			<use xlink:href="#SVGID_00000158741365842304817880000000760096325547095706_"  style="overflow:visible;"/>
		</clipPath>
		<g style="clip-path:url(#SVGID_00000018233470786714464350000013782437771096568195_);">
			
				<linearGradient id="SVGID_00000062182387411699478900000002800799853598033562_" gradientUnits="userSpaceOnUse" x1="427.9129" y1="53.136" x2="749.2605" y2="53.136">
				<stop  offset="0.2286" style="stop-color:#2A3CA1"/>
				<stop  offset="0.9986" style="stop-color:#220459"/>
			</linearGradient>
			<path style="fill:url(#SVGID_00000062182387411699478900000002800799853598033562_);" d="M427.913-9.418
				c5.636,16.142,11.272,32.284,16.908,48.426c2.031,5.818,4.165,11.811,8.332,16.352c3.376,3.68,7.848,6.137,11.75,9.253
				c15.087,12.05,20.977,33.295,36.913,44.197c18.337,12.545,43.204,7.197,64.056-0.473c7.948-2.923,16.011-6.16,24.478-6.288
				c14.001-0.213,27.169,8.096,41.155,7.426c13.005-0.623,24.572-9.084,32.391-19.495s12.571-22.735,17.774-34.671
				c14.56-33.402,35.066-48.915,67.591-65.341L427.913-9.418z"/>
		</g>
		<g style="clip-path:url(#SVGID_00000018233470786714464350000013782437771096568195_);">
			
				<linearGradient id="SVGID_00000169530709265211667690000000134438946792862645_" gradientUnits="userSpaceOnUse" x1="288.2412" y1="212.9946" x2="59.9828" y2="21.8036">
				<stop  offset="0.2286" style="stop-color:#2A3CA1"/>
				<stop  offset="0.9986" style="stop-color:#220459"/>
			</linearGradient>
			<path style="fill:url(#SVGID_00000169530709265211667690000000134438946792862645_);" d="M-39.363,129.354
				c8.199,7.051,141.115,7.259,151.926,7.046c26.86-0.531,54.301-1.348,79.941,6.674c12.594,3.941,24.501,9.95,37.253,13.344
				c18.572,4.942,40.007,3.551,54.784-8.735c14.778-12.287,19.231-37.204,5.858-51.007c-4.364-4.504-10.132-7.532-14.171-12.331
				c-10.584-12.575-5.72-31.453-8.395-47.67c-2.617-15.867-12.689-29.345-22.449-42.126c-5.803-7.599-11.606-15.198-17.41-22.797
				H-39.363V129.354z"/>
		</g>
		<g style="clip-path:url(#SVGID_00000018233470786714464350000013782437771096568195_);">
			
				<linearGradient id="SVGID_00000169559378629581335380000004556571057927518375_" gradientUnits="userSpaceOnUse" x1="466.3083" y1="453.2473" x2="822.7971" y2="453.2473">
				<stop  offset="0.2286" style="stop-color:#2A3CA1"/>
				<stop  offset="0.9986" style="stop-color:#220459"/>
			</linearGradient>
			<path style="fill:url(#SVGID_00000169559378629581335380000004556571057927518375_);" d="M466.308,531.056
				c12.706-50.803,50.423-93.174,96.125-118.74c45.702-25.566,98.774-35.61,151.129-36.765
				c36.921-0.815,74.298,2.686,109.235,14.655v140.85H466.308z"/>
		</g>
		<g style="clip-path:url(#SVGID_00000018233470786714464350000013782437771096568195_);">
			
				<linearGradient id="SVGID_00000154402618872062651750000017628352527214904229_" gradientUnits="userSpaceOnUse" x1="-73.0595" y1="438.1315" x2="411.3768" y2="438.1315">
				<stop  offset="0.2286" style="stop-color:#2A3CA1"/>
				<stop  offset="0.9986" style="stop-color:#220459"/>
			</linearGradient>
			<path style="fill:url(#SVGID_00000154402618872062651750000017628352527214904229_);" d="M-59.347,378.154
				c57.413-1.347,106.137-53.259,163.383-48.682c21.382,1.71,42.513,11.396,63.552,7.212c7.17-1.426,14.179-4.456,21.473-3.97
				c23.96,1.595,31.588,36.722,54.363,44.336c12.193,4.076,26.779-0.638,37.68,6.177c15.106,9.443,14.086,35.402,30.439,42.471
				c3.54,1.53,7.463,1.897,11.154,3.017c18.051,5.477,25.614,26.153,33.161,43.44c12.543,28.731,31.682,54.559,55.518,74.922H-73.06
				L-59.347,378.154z"/>
		</g>
		
			<linearGradient id="SVGID_00000139275223629133862220000005466537209078665379_" gradientUnits="userSpaceOnUse" x1="66.424" y1="274.533" x2="35.209" y2="36.52">
			<stop  offset="0" style="stop-color:#A1A1FF"/>
			<stop  offset="0.9995" style="stop-color:#1745EB"/>
		</linearGradient>
		
			<path style="clip-path:url(#SVGID_00000018233470786714464350000013782437771096568195_);fill:url(#SVGID_00000139275223629133862220000005466537209078665379_);" d="
			M49.766-11.142c1.338,8.69,5.05,16.362,9.968,23.549c7.072,10.333,16.261,18.547,25.975,26.261
			c7.837,6.224,15.422,12.721,21.42,20.833c6.057,8.192,10.437,17.124,11.714,27.361c1.088,8.725-0.421,17.093-4.274,24.911
			c-4.099,8.318-8.719,16.378-12.921,24.647c-4.037,7.945-7.649,16.157-6.456,25.346c0.602,4.635,2.004,9.23,3.557,13.664
			c2.157,6.162,5.004,12.082,7.191,18.236c9.074,25.534,4.011,48.344-13.78,68.454c-11.959,13.517-27.165,21.822-44.514,26.083
			c-12.696,3.118-25.578,5.479-38.351,8.295c-5.528,1.219-10.991,2.733-16.483,4.113c0-103.917,0-207.834,0-311.751
			C11.797-11.142,30.781-11.142,49.766-11.142z"/>
		
			<linearGradient id="SVGID_00000087384858756675929240000014791757292816299704_" gradientUnits="userSpaceOnUse" x1="707.524" y1="45.8583" x2="694.5178" y2="156.4109">
			<stop  offset="0" style="stop-color:#A1A1FF"/>
			<stop  offset="0.9995" style="stop-color:#1745EB"/>
		</linearGradient>
		
			<path style="clip-path:url(#SVGID_00000018233470786714464350000013782437771096568195_);fill:url(#SVGID_00000087384858756675929240000014791757292816299704_);" d="
			M760.2,163.844c-4.852,2.984-9.844,5.625-15.467,6.911c-12.777,2.923-28.643-3.986-35.148-15.359
			c-2.593-4.533-3.527-9.475-3.193-14.599c0.321-4.911,1.044-9.795,1.508-14.699c0.164-1.733,0.235-3.502,0.09-5.232
			c-0.277-3.294-2.394-5.241-5.27-6.453c-5.572-2.349-11.335-2.533-17.046-0.835c-6.087,1.81-12.035,4.082-18.091,6.002
			c-5.931,1.88-11.966,3.122-18.221,1.698c-8.844-2.014-14.392-8.812-14.754-17.876c-0.299-7.472,1.991-14.255,5.27-20.798
			c5.117-10.21,12.738-18.096,22.404-24.078c5.501-3.405,10.747-7.093,14.132-12.829c1.141-1.934,2.357-3.829,3.4-5.814
			c8.38-15.962,22.032-25.007,38.948-29.815c6.346-1.804,12.854-2.422,19.402-2.783c7.345-0.404,14.691-0.796,22.036-1.192
			C760.2,58.678,760.2,111.261,760.2,163.844z"/>
		
			<linearGradient id="SVGID_00000102540585845006586480000014887842049376319406_" gradientUnits="userSpaceOnUse" x1="49.9229" y1="390.8667" x2="26.5118" y2="502.7195">
			<stop  offset="0" style="stop-color:#FE8EDC"/>
			<stop  offset="0.9995" style="stop-color:#1745EB"/>
		</linearGradient>
		
			<path style="clip-path:url(#SVGID_00000018233470786714464350000013782437771096568195_);fill:url(#SVGID_00000102540585845006586480000014887842049376319406_);" d="
			M-7.188,448.992C4.5,442.573,16.06,435.907,27.918,429.82c8.61-4.42,17.822-7.423,27.476-8.799
			c6.955-0.991,13.702-0.307,20.04,2.887c10.597,5.34,12.531,16.303,4.315,24.874c-2.406,2.51-5.123,4.751-7.864,6.904
			c-1.983,1.557-2.417,3.318-2.13,5.725c0.351,2.943,0.568,5.975,0.257,8.906c-0.503,4.742-3.254,8.124-7.538,10.213
			c-6.656,3.245-13.575,3.234-20.645,1.718c-2.672-0.573-5.384-1.139-8.099-1.264c-1.343-0.062-2.939,0.603-4.06,1.429
			c-2.603,1.918-4.883,4.274-7.481,6.2c-7.062,5.234-15.24,6.483-23.767,6.296c-1.871-0.041-3.741-0.133-5.611-0.202
			C-7.188,479.467-7.188,464.229-7.188,448.992z"/>
		
			<linearGradient id="SVGID_00000109733006695038901910000004228156197064286592_" gradientUnits="userSpaceOnUse" x1="478.708" y1="27.426" x2="588.5867" y2="27.426">
			<stop  offset="0" style="stop-color:#FFFFFF"/>
			<stop  offset="0.9995" style="stop-color:#1745EB"/>
		</linearGradient>
		
			<path style="clip-path:url(#SVGID_00000018233470786714464350000013782437771096568195_);fill:url(#SVGID_00000109733006695038901910000004228156197064286592_);" d="
			M588.587-11.142c-8.596,10.602-19.299,18.317-31.99,23.286c-5.683,2.225-11.425,4.302-17.084,6.587
			c-10.544,4.259-18.246,11.96-24.917,20.871c-4.558,6.089-9.022,12.253-13.743,18.214c-1.796,2.267-4.004,4.322-6.355,6.015
			c-6.138,4.419-12.997,1.809-14.985-5.512c-1.655-6.097-0.528-12.017,1.323-17.835c3.264-10.257,8.668-19.449,14.581-28.341
			c5.213-7.838,10.646-15.529,15.982-23.285C537.128-11.142,562.857-11.142,588.587-11.142z"/>
		
			<linearGradient id="SVGID_00000039107841394193885290000007568269711683285393_" gradientUnits="userSpaceOnUse" x1="551.6583" y1="476.0657" x2="702.1563" y2="479.1688">
			<stop  offset="0" style="stop-color:#5C72FF"/>
			<stop  offset="0.9995" style="stop-color:#1745EB"/>
		</linearGradient>
		
			<path style="clip-path:url(#SVGID_00000018233470786714464350000013782437771096568195_);fill:url(#SVGID_00000039107841394193885290000007568269711683285393_);" d="
			M651.103,527.898c-4.9-0.342-11.685-0.988-18.485-1.239c-6.079-0.224-12.173,0.004-18.261,0.004c-12.171,0-24.35,0.261-36.51-0.1
			c-15.522-0.461-30.83-4.052-46.445-3.464c-8.405,0.317-16.818,1.004-25.214,0.841c-7.582-0.147-15.196-0.885-22.702-1.994
			c-6.614-0.977-10.48-5.21-11.105-11.211c-0.482-4.631,1.781-8.358,4.695-11.695c7.678-8.793,17.483-13.662,28.962-15.003
			c5.144-0.601,10.375-0.539,15.569-0.609c3.116-0.042,4.081-0.509,5.278-3.443c1.057-2.592,2.009-5.231,3.16-7.78
			c3.754-8.315,9.929-13.725,19.112-15.043c4.226-0.607,6.608-2.612,8.078-6.651c2.894-7.949,9.059-13.008,16.274-16.947
			c14.917-8.146,30.305-8.164,45.994-2.638c13.816,4.867,25.771,12.771,36.616,22.5c2.741,2.458,5.801,4.563,8.514,7.049
			c6.086,5.575,13.67,5.697,21.201,6.122c12.997,0.733,23.76,5.693,31.024,16.859c5.178,7.96,4.987,15.893-0.416,22.521
			c-1.807,2.216-3.918,4.266-6.182,6.014c-7.621,5.889-16.592,8.887-25.69,11.544C674.266,526.544,663.705,527.697,651.103,527.898z
			"/>
		
			<linearGradient id="SVGID_00000088818945199844301910000017735813269985169044_" gradientUnits="userSpaceOnUse" x1="89.6334" y1="488.9823" x2="236.6027" y2="468.1725">
			<stop  offset="4.547000e-04" style="stop-color:#FFFFFF"/>
			<stop  offset="0.9995" style="stop-color:#1745EB"/>
		</linearGradient>
		
			<path style="clip-path:url(#SVGID_00000018233470786714464350000013782437771096568195_);fill:url(#SVGID_00000088818945199844301910000017735813269985169044_);" d="
			M138.154,461.804c6.549,0,13.1,0.077,19.648-0.018c9.222-0.134,18.176-2.128,27.156-4.003c10.501-2.193,21.034-4.282,31.853-3.954
			c6.231,0.189,11.914,2.011,16.744,6.049c7.42,6.203,8.126,16.245,1.634,23.38c-5.014,5.511-11.613,8.282-18.562,10.321
			c-7.943,2.331-16.134,3.277-24.354,3.719c-7.474,0.401-14.974,0.533-22.46,0.453c-16.839-0.179-33.254-3.094-49.222-8.403
			c-5.13-1.706-10.177-3.692-15.164-5.783c-2.567-1.076-4.566-3.039-5.806-5.617c-1.452-3.019-1.211-5.872,0.786-8.628
			c3.331-4.597,8.103-6.751,13.457-7.154c8.068-0.608,16.18-0.639,24.273-0.916C138.143,461.435,138.148,461.62,138.154,461.804z"/>
		
			<linearGradient id="SVGID_00000161628521351885452850000006956623941533107340_" gradientUnits="userSpaceOnUse" x1="106.0075" y1="62.609" x2="360.9289" y2="-15.428">
			<stop  offset="0" style="stop-color:#FE8EDC"/>
			<stop  offset="0.9995" style="stop-color:#1745EB"/>
		</linearGradient>
		
			<path style="clip-path:url(#SVGID_00000018233470786714464350000013782437771096568195_);fill:url(#SVGID_00000161628521351885452850000006956623941533107340_);" d="
			M142.713,30.846c-1.469-4.164-1.308-8.506-0.022-12.869c1.943-6.59,7.034-10.039,12.764-12.841
			c6.158-3.011,12.589-2.48,19.06-1.402c1.719,0.286,3.781,1.126,5.09,0.489c1.211-0.59,1.658-2.801,2.386-4.324
			c3.71-7.76,9.967-12.94,17.206-17.179c8.465-4.957,17.569-5.049,26.865-3.625c2.391,0.366,4.774,0.923,7.081,1.649
			c1.347,0.424,1.949,0.172,2.639-1.024c5.228-9.07,11.467-17.372,18.897-24.778C266.98-57.32,281.6-64.865,298.931-66.82
			c5.996-0.676,12.054-1.587,18.048-1.376c22.458,0.793,40.541,9.926,52.84,29.211c4.37,6.853,5.806,14.573,5.382,22.567
			c-0.831,15.65-7.188,29.33-15.375,42.374c-10.258,16.344-24.724,27.868-41.451,36.906c-19.244,10.396-39.389,18.583-60.322,24.9
			c-12.164,3.671-24.282,7.472-36.821,9.713c-13.006,2.324-26.09,3.488-39.288,2.362c-11.497-0.981-22.67-3.503-33.237-8.204
			c-8.458-3.763-16.372-8.449-21.499-16.528c-4.534-7.144-6.859-14.866-4.111-23.287c1.85-5.669,5.631-10.116,10.16-13.868
			C136.222,35.493,139.413,33.309,142.713,30.846z"/>
		
			<linearGradient id="SVGID_00000083783975617569732410000014007707072580233132_" gradientUnits="userSpaceOnUse" x1="637.6862" y1="241.1731" x2="728.7287" y2="388.1419" gradientTransform="matrix(0.7165 -0.6976 0.6976 0.7165 34.0088 532.6636)">
			<stop  offset="0" style="stop-color:#FE8EDC"/>
			<stop  offset="0.9995" style="stop-color:#1745EB"/>
		</linearGradient>
		
			<path style="clip-path:url(#SVGID_00000018233470786714464350000013782437771096568195_);fill:url(#SVGID_00000083783975617569732410000014007707072580233132_);" d="
			M671.04,322.796c-15.983-17.709-25.609-36.405-27.719-58.55c-1.009-10.586,1.76-20.553,5.655-30.251
			c3.187-7.937,7.426-15.272,13.505-21.355c6.658-6.663,13.74-12.79,23.409-14.672c7.61-1.481,14.928-0.901,21.56,3.565
			c5.462,3.679,8.779,9.034,10.857,15.069c2.25,6.536,3.98,13.25,5.986,19.871c0.632,2.087,1.487,4.106,2.128,6.19
			c1.608,5.232,5.137,9.004,9.56,11.835c1.633,1.045,4.031,1.324,6.054,1.247c5.52-0.211,10.465-2.66,15.498-4.65
			c9.391-3.711,18.921-6.811,29.18-6.598c7.939,0.165,15.522,1.672,21.96,6.739c5.42,4.266,9.139,9.843,11.972,16.044
			c5.496,12.031,4.423,24.26,0.56,36.369c-5.576,17.477-17.357,29.648-33.452,37.973c-15.773,8.159-32.593,10.699-50.105,9.368
			c-19.58-1.488-37.832-7.132-54.124-18.291C678.659,329.368,674.251,325.366,671.04,322.796z"/>
		
			<linearGradient id="SVGID_00000114055984159458220750000014137835964981486507_" gradientUnits="userSpaceOnUse" x1="275.117" y1="454.8126" x2="520.9091" y2="465.7097">
			<stop  offset="0" style="stop-color:#FE8EDC"/>
			<stop  offset="0.9995" style="stop-color:#1745EB"/>
		</linearGradient>
		
			<path style="clip-path:url(#SVGID_00000018233470786714464350000013782437771096568195_);fill:url(#SVGID_00000114055984159458220750000014137835964981486507_);" d="
			M402.534,431.371c1.458-4.444,2.834-8.686,4.242-12.917c2.462-7.397,4.555-14.948,7.531-22.132
			c2.785-6.722,7.652-12.061,13.377-16.678c13.645-11.005,38.001-8.801,48.862,9.191c6.691,11.083,9.034,23.053,8.116,35.831
			c-2.109,29.328-13.641,54.879-32.491,76.911c-18.739,21.902-42.016,37.35-70.775,42.843c-22.661,4.329-45.388,4.794-67.743-2.419
			c-8.577-2.768-16.523-6.697-23.099-12.945c-9.761-9.275-13.443-20.6-10.371-33.784c2.815-12.079,8.497-22.513,18.42-30.371
			c7.962-6.306,17.031-8.238,26.874-6.954c6.67,0.87,13.294,2.091,19.937,3.162c3.32,0.535,3.952,0.136,5.327-2.954
			c1.665-3.74,3.101-7.637,5.22-11.109c4.749-7.783,12.141-12.224,20.64-14.881C384.919,429.564,393.358,428.373,402.534,431.371z"
			/>
		
			<linearGradient id="SVGID_00000172422892374636871700000012478112204865116314_" gradientUnits="userSpaceOnUse" x1="584.3113" y1="159.3778" x2="642.8759" y2="159.3778">
			<stop  offset="0" style="stop-color:#5C72FF"/>
			<stop  offset="0.9995" style="stop-color:#1745EB"/>
		</linearGradient>
		
			<path style="clip-path:url(#SVGID_00000018233470786714464350000013782437771096568195_);fill:url(#SVGID_00000172422892374636871700000012478112204865116314_);" d="
			M615.218,144.734c8.549,0.105,15.824,2.33,22.146,7.268c3.05,2.382,5.133,5.425,5.469,9.426c0.364,4.327-1.645,7.43-5.132,9.707
			c-4.059,2.65-8.568,3.247-13.282,2.703c-5.009-0.577-10-1.392-15.024-1.742c-3.399-0.237-6.84,0.185-10.264,0.247
			c-2.424,0.044-4.908,0.31-7.263-0.104c-6.27-1.104-9.236-7.155-6.589-12.98c1.414-3.112,3.761-5.414,6.508-7.321
			C599,146.93,607.166,145.053,615.218,144.734z"/>
		<g style="clip-path:url(#SVGID_00000018233470786714464350000013782437771096568195_);">
			
				<linearGradient id="SVGID_00000016039092352622674080000017026221676727044489_" gradientUnits="userSpaceOnUse" x1="49.8828" y1="186.2532" x2="249.5851" y2="163.6269">
				<stop  offset="4.340300e-04" style="stop-color:#FFFFFF"/>
				<stop  offset="0.9995" style="stop-color:#1745EB"/>
			</linearGradient>
			<path style="fill:url(#SVGID_00000016039092352622674080000017026221676727044489_);" d="M95.725,181.468
				c0.019,2.238-1.202,3.66-3.139,3.654c-1.853-0.006-3.361-1.697-3.337-3.743c0.023-2.005,1.503-3.656,3.297-3.677
				C94.465,177.68,95.705,179.149,95.725,181.468z"/>
			
				<linearGradient id="SVGID_00000084488332062963716260000012308816365993225357_" gradientUnits="userSpaceOnUse" x1="50.6101" y1="192.6757" x2="250.3141" y2="170.0491">
				<stop  offset="4.340300e-04" style="stop-color:#FFFFFF"/>
				<stop  offset="0.9995" style="stop-color:#1745EB"/>
			</linearGradient>
			<path style="fill:url(#SVGID_00000084488332062963716260000012308816365993225357_);" d="M55.843,192.743
				c0.024,1.758-1.395,3.234-3.12,3.248c-1.882,0.015-3.709-1.7-3.698-3.472c0.011-1.768,1.738-3.573,3.461-3.616
				C54.368,188.855,55.812,190.507,55.843,192.743z"/>
			
				<linearGradient id="SVGID_00000053544881014063431280000004442206975898651296_" gradientUnits="userSpaceOnUse" x1="49.925" y1="186.629" x2="249.6288" y2="164.0025">
				<stop  offset="4.340300e-04" style="stop-color:#FFFFFF"/>
				<stop  offset="0.9995" style="stop-color:#1745EB"/>
			</linearGradient>
			<path style="fill:url(#SVGID_00000053544881014063431280000004442206975898651296_);" d="M72.268,183.577
				c-0.012-1.832,1.437-3.32,3.205-3.291c1.766,0.029,3.17,1.605,3.221,3.615c0.044,1.74-1.369,3.239-3.095,3.283
				C73.777,187.23,72.281,185.61,72.268,183.577z"/>
			
				<linearGradient id="SVGID_00000155110512179531943950000002514997877339329683_" gradientUnits="userSpaceOnUse" x1="48.2498" y1="171.8419" x2="247.9523" y2="149.2155">
				<stop  offset="4.340300e-04" style="stop-color:#FFFFFF"/>
				<stop  offset="0.9995" style="stop-color:#1745EB"/>
			</linearGradient>
			<path style="fill:url(#SVGID_00000155110512179531943950000002514997877339329683_);" d="M94.724,166.772
				c-0.006,2.004-1.4,3.584-3.186,3.61c-1.795,0.026-3.25-1.515-3.215-3.405c0.036-1.952,1.403-3.448,3.18-3.48
				C93.262,163.464,94.729,164.957,94.724,166.772z"/>
			
				<linearGradient id="SVGID_00000098219212183784930900000002138423532435653270_" gradientUnits="userSpaceOnUse" x1="52.2175" y1="206.8597" x2="251.9196" y2="184.2333">
				<stop  offset="4.340300e-04" style="stop-color:#FFFFFF"/>
				<stop  offset="0.9995" style="stop-color:#1745EB"/>
			</linearGradient>
			<path style="fill:url(#SVGID_00000098219212183784930900000002138423532435653270_);" d="M102.175,204.633
				c-1.716,0.012-3.174-1.461-3.152-3.183c0.026-2.029,1.582-3.732,3.385-3.705c1.671,0.025,3.063,1.439,3.083,3.134
				C105.516,202.906,104,204.621,102.175,204.633z"/>
			
				<linearGradient id="SVGID_00000158709122968828011050000009218270472178074013_" gradientUnits="userSpaceOnUse" x1="46.6514" y1="157.7351" x2="246.3547" y2="135.1087">
				<stop  offset="4.340300e-04" style="stop-color:#FFFFFF"/>
				<stop  offset="0.9995" style="stop-color:#1745EB"/>
			</linearGradient>
			<path style="fill:url(#SVGID_00000158709122968828011050000009218270472178074013_);" d="M76.327,150.948
				c1.696,0.005,3.091,1.398,3.113,3.11c0.027,2.035-1.516,3.778-3.331,3.765c-1.669-0.012-3.108-1.452-3.127-3.129
				C72.959,152.648,74.482,150.943,76.327,150.948z"/>
			
				<linearGradient id="SVGID_00000025427761387188498020000013793720532478949770_" gradientUnits="userSpaceOnUse" x1="46.6597" y1="157.809" x2="246.3636" y2="135.1824">
				<stop  offset="4.340300e-04" style="stop-color:#FFFFFF"/>
				<stop  offset="0.9995" style="stop-color:#1745EB"/>
			</linearGradient>
			<path style="fill:url(#SVGID_00000025427761387188498020000013793720532478949770_);" d="M58.268,159.735
				c-1.692,0.019-3.14-1.366-3.194-3.055c-0.057-1.784,1.71-3.462,3.663-3.48c1.7-0.015,3.155,1.372,3.198,3.049
				C61.981,158.036,60.216,159.713,58.268,159.735z"/>
			
				<linearGradient id="SVGID_00000098186295176491792050000013978148688607087776_" gradientUnits="userSpaceOnUse" x1="47.6924" y1="166.928" x2="247.3979" y2="144.3013">
				<stop  offset="4.340300e-04" style="stop-color:#FFFFFF"/>
				<stop  offset="0.9995" style="stop-color:#1745EB"/>
			</linearGradient>
			<path style="fill:url(#SVGID_00000098186295176491792050000013978148688607087776_);" d="M101.969,157.609
				c1.966,0.009,3.473,1.372,3.481,3.151c0.008,1.804-1.485,3.189-3.436,3.185c-1.984-0.003-3.446-1.334-3.465-3.153
				C98.53,158.972,100.003,157.6,101.969,157.609z"/>
			
				<linearGradient id="SVGID_00000165933135399619822060000013373354517029188776_" gradientUnits="userSpaceOnUse" x1="49.2676" y1="180.8282" x2="248.9712" y2="158.2017">
				<stop  offset="4.340300e-04" style="stop-color:#FFFFFF"/>
				<stop  offset="0.9995" style="stop-color:#1745EB"/>
			</linearGradient>
			<path style="fill:url(#SVGID_00000165933135399619822060000013373354517029188776_);" d="M112.007,174.305
				c-0.019,1.701-1.425,3.106-3.113,3.111c-1.871,0.006-3.656-1.713-3.64-3.504c0.015-1.691,1.435-3.117,3.108-3.122
				C110.209,170.784,112.026,172.537,112.007,174.305z"/>
			
				<linearGradient id="SVGID_00000118359637120797089350000006378690965071261570_" gradientUnits="userSpaceOnUse" x1="48.584" y1="174.7929" x2="248.2873" y2="152.1664">
				<stop  offset="4.340300e-04" style="stop-color:#FFFFFF"/>
				<stop  offset="0.9995" style="stop-color:#1745EB"/>
			</linearGradient>
			<path style="fill:url(#SVGID_00000118359637120797089350000006378690965071261570_);" d="M55.778,174.432
				c-0.016,1.909-1.352,3.334-3.125,3.334c-1.871-0.001-3.226-1.496-3.193-3.525c0.031-1.907,1.365-3.325,3.141-3.339
				C54.454,170.887,55.795,172.377,55.778,174.432z"/>
			
				<linearGradient id="SVGID_00000173159220942516670790000018245409833325464713_" gradientUnits="userSpaceOnUse" x1="52.4846" y1="209.2209" x2="252.1882" y2="186.5944">
				<stop  offset="4.340300e-04" style="stop-color:#FFFFFF"/>
				<stop  offset="0.9995" style="stop-color:#1745EB"/>
			</linearGradient>
			<path style="fill:url(#SVGID_00000173159220942516670790000018245409833325464713_);" d="M73.544,207.422
				c-0.006,1.678-1.43,3.081-3.132,3.086c-1.893,0.006-3.681-1.692-3.668-3.481c0.013-1.677,1.441-3.088,3.134-3.096
				C71.761,203.921,73.55,205.626,73.544,207.422z"/>
			
				<linearGradient id="SVGID_00000082331277672452199110000014648693065910757023_" gradientUnits="userSpaceOnUse" x1="52.8231" y1="212.2102" x2="252.5279" y2="189.5835">
				<stop  offset="4.340300e-04" style="stop-color:#FFFFFF"/>
				<stop  offset="0.9995" style="stop-color:#1745EB"/>
			</linearGradient>
			<path style="fill:url(#SVGID_00000082331277672452199110000014648693065910757023_);" d="M89.571,211.389
				c-1.866,0.034-3.694-1.675-3.701-3.46c-0.007-1.685,1.408-3.13,3.091-3.156c1.84-0.029,3.714,1.724,3.712,3.473
				C92.67,209.936,91.267,211.358,89.571,211.389z"/>
			
				<linearGradient id="SVGID_00000131329678595980408170000003506747521039618969_" gradientUnits="userSpaceOnUse" x1="51.0306" y1="196.3866" x2="250.7346" y2="173.7601">
				<stop  offset="4.340300e-04" style="stop-color:#FFFFFF"/>
				<stop  offset="0.9995" style="stop-color:#1745EB"/>
			</linearGradient>
			<path style="fill:url(#SVGID_00000131329678595980408170000003506747521039618969_);" d="M69.314,197.442
				c-1.719,0.027-3.134-1.327-3.17-3.035c-0.035-1.7,1.33-3.149,3.021-3.206c1.716-0.058,3.233,1.396,3.251,3.117
				C72.435,195.992,71.023,197.414,69.314,197.442z"/>
			
				<linearGradient id="SVGID_00000020396405920288204040000001907234521403994272_" gradientUnits="userSpaceOnUse" x1="49.4046" y1="182.0354" x2="249.1079" y2="159.4089">
				<stop  offset="4.340300e-04" style="stop-color:#FFFFFF"/>
				<stop  offset="0.9995" style="stop-color:#1745EB"/>
			</linearGradient>
			<path style="fill:url(#SVGID_00000020396405920288204040000001907234521403994272_);" d="M65.034,180.635
				c0.002,1.705-1.382,3.096-3.09,3.104c-1.714,0.009-3.134-1.364-3.157-3.051c-0.024-1.728,1.441-3.207,3.163-3.195
				C63.618,177.505,65.031,178.944,65.034,180.635z"/>
			
				<linearGradient id="SVGID_00000039855991764991107380000017103475421839551874_" gradientUnits="userSpaceOnUse" x1="47.7166" y1="167.1369" x2="247.4192" y2="144.5105">
				<stop  offset="4.340300e-04" style="stop-color:#FFFFFF"/>
				<stop  offset="0.9995" style="stop-color:#1745EB"/>
			</linearGradient>
			<path style="fill:url(#SVGID_00000039855991764991107380000017103475421839551874_);" d="M68.672,161.647
				c1.704,0.032,3.091,1.442,3.084,3.135c-0.007,1.742-1.478,3.159-3.224,3.106c-1.702-0.052-3.059-1.485-3.017-3.187
				C65.557,162.997,66.985,161.616,68.672,161.647z"/>
			
				<linearGradient id="SVGID_00000124155932210219090330000008403234213519775133_" gradientUnits="userSpaceOnUse" x1="50.7727" y1="194.1111" x2="250.4764" y2="171.4846">
				<stop  offset="4.340300e-04" style="stop-color:#FFFFFF"/>
				<stop  offset="0.9995" style="stop-color:#1745EB"/>
			</linearGradient>
			<path style="fill:url(#SVGID_00000124155932210219090330000008403234213519775133_);" d="M106.449,184.676
				c1.69-0.03,3.153,1.359,3.2,3.037c0.049,1.722-1.402,3.2-3.148,3.206c-1.7,0.006-3.11-1.391-3.122-3.094
				C103.367,186.119,104.743,184.706,106.449,184.676z"/>
			
				<linearGradient id="SVGID_00000068650062467424682020000016688287732286210438_" gradientUnits="userSpaceOnUse" x1="51.9695" y1="204.6732" x2="251.6731" y2="182.0467">
				<stop  offset="4.340300e-04" style="stop-color:#FFFFFF"/>
				<stop  offset="0.9995" style="stop-color:#1745EB"/>
			</linearGradient>
			<path style="fill:url(#SVGID_00000068650062467424682020000016688287732286210438_);" d="M57.569,204.457
				c-0.029,1.702-1.436,3.071-3.149,3.063c-1.709-0.008-3.1-1.405-3.095-3.109c0.005-1.749,1.47-3.19,3.199-3.146
				C56.19,201.308,57.598,202.783,57.569,204.457z"/>
			
				<linearGradient id="SVGID_00000059309039539055980450000016522892987776537751_" gradientUnits="userSpaceOnUse" x1="51.0948" y1="196.9558" x2="250.7994" y2="174.3292">
				<stop  offset="4.340300e-04" style="stop-color:#FFFFFF"/>
				<stop  offset="0.9995" style="stop-color:#1745EB"/>
			</linearGradient>
			<path style="fill:url(#SVGID_00000059309039539055980450000016522892987776537751_);" d="M89.801,192.969
				c-0.015,1.698-1.42,3.078-3.133,3.077c-1.761-0.002-3.173-1.447-3.124-3.199c0.047-1.684,1.512-3.083,3.188-3.043
				C88.422,189.845,89.816,191.282,89.801,192.969z"/>
			
				<linearGradient id="SVGID_00000058561897786051446160000001986438385632528800_" gradientUnits="userSpaceOnUse" x1="48.6334" y1="175.2293" x2="248.3375" y2="152.6028">
				<stop  offset="4.340300e-04" style="stop-color:#FFFFFF"/>
				<stop  offset="0.9995" style="stop-color:#1745EB"/>
			</linearGradient>
			<path style="fill:url(#SVGID_00000058561897786051446160000001986438385632528800_);" d="M82.098,171.825
				c0.006,1.691-1.398,3.086-3.112,3.092c-1.701,0.006-3.146-1.4-3.152-3.069c-0.006-1.724,1.481-3.209,3.188-3.184
				C80.699,168.689,82.092,170.12,82.098,171.825z"/>
			
				<linearGradient id="SVGID_00000072265791759709031340000017298299835265309842_" gradientUnits="userSpaceOnUse" x1="51.0384" y1="196.4548" x2="250.7423" y2="173.8283">
				<stop  offset="4.340300e-04" style="stop-color:#FFFFFF"/>
				<stop  offset="0.9995" style="stop-color:#1745EB"/>
			</linearGradient>
			<path style="fill:url(#SVGID_00000072265791759709031340000017298299835265309842_);" d="M43.349,197.88
				c-0.012,1.821-1.487,3.303-3.246,3.261c-1.788-0.043-3.196-1.65-3.181-3.631c0.014-1.824,1.494-3.317,3.242-3.269
				C41.947,194.29,43.362,195.907,43.349,197.88z"/>
		</g>
		<g style="clip-path:url(#SVGID_00000018233470786714464350000013782437771096568195_);">
			
				<linearGradient id="SVGID_00000103944696932528827110000005030776360610395294_" gradientUnits="userSpaceOnUse" x1="637.725" y1="341.3501" x2="768.4374" y2="344.2765">
				<stop  offset="4.340300e-04" style="stop-color:#FFFFFF"/>
				<stop  offset="0.9995" style="stop-color:#1745EB"/>
			</linearGradient>
			<path style="fill:url(#SVGID_00000103944696932528827110000005030776360610395294_);" d="M685.321,342.234
				c0.049,2.044-1.832,3.957-3.902,3.968c-1.989,0.01-3.811-1.776-3.873-3.797c-0.063-2.068,1.798-3.958,3.891-3.951
				C683.444,338.461,685.274,340.241,685.321,342.234z"/>
			
				<linearGradient id="SVGID_00000043439411706750883290000000041483105587080086_" gradientUnits="userSpaceOnUse" x1="637.5114" y1="350.8948" x2="768.2229" y2="353.8212">
				<stop  offset="4.340300e-04" style="stop-color:#FFFFFF"/>
				<stop  offset="0.9995" style="stop-color:#1745EB"/>
			</linearGradient>
			<path style="fill:url(#SVGID_00000043439411706750883290000000041483105587080086_);" d="M700.114,356.115
				c-2.12-0.024-3.807-1.682-3.833-3.768c-0.026-2.127,1.764-3.886,3.935-3.866c2.065,0.019,3.816,1.74,3.848,3.781
				C704.096,354.372,702.284,356.139,700.114,356.115z"/>
			
				<linearGradient id="SVGID_00000155836699937451939600000005433823802281237143_" gradientUnits="userSpaceOnUse" x1="636.9451" y1="376.1845" x2="767.6573" y2="379.1109">
				<stop  offset="4.340300e-04" style="stop-color:#FFFFFF"/>
				<stop  offset="0.9995" style="stop-color:#1745EB"/>
			</linearGradient>
			<path style="fill:url(#SVGID_00000155836699937451939600000005433823802281237143_);" d="M649.38,380.348
				c-2.007,0.029-3.821-1.719-3.892-3.751c-0.074-2.105,1.71-3.985,3.813-4.02c2.031-0.034,3.807,1.685,3.876,3.753
				C653.249,378.472,651.507,380.317,649.38,380.348z"/>
			
				<linearGradient id="SVGID_00000088836822063393808600000010452690480602046110_" gradientUnits="userSpaceOnUse" x1="637.0836" y1="369.9955" x2="767.7959" y2="372.9219">
				<stop  offset="4.340300e-04" style="stop-color:#FFFFFF"/>
				<stop  offset="0.9995" style="stop-color:#1745EB"/>
			</linearGradient>
			<path style="fill:url(#SVGID_00000088836822063393808600000010452690480602046110_);" d="M668.071,374.514
				c-2.154,0.006-3.946-1.785-3.899-3.899c0.046-2.053,1.784-3.741,3.862-3.751c2.188-0.011,3.925,1.737,3.876,3.9
				C671.864,372.863,670.18,374.508,668.071,374.514z"/>
			
				<linearGradient id="SVGID_00000049914960690994599890000017216653923907095962_" gradientUnits="userSpaceOnUse" x1="636.8986" y1="378.2621" x2="767.6104" y2="381.1884">
				<stop  offset="4.340300e-04" style="stop-color:#FFFFFF"/>
				<stop  offset="0.9995" style="stop-color:#1745EB"/>
			</linearGradient>
			<path style="fill:url(#SVGID_00000049914960690994599890000017216653923907095962_);" d="M684.956,375.514
				c2.128,0.021,3.784,1.657,3.813,3.768c0.03,2.174-1.705,3.902-3.894,3.878c-2.082-0.023-3.806-1.723-3.833-3.778
				C681.014,377.238,682.78,375.492,684.956,375.514z"/>
			
				<linearGradient id="SVGID_00000098188045960846259780000007439921294513550263_" gradientUnits="userSpaceOnUse" x1="636.6702" y1="388.4631" x2="767.3823" y2="391.3895">
				<stop  offset="4.340300e-04" style="stop-color:#FFFFFF"/>
				<stop  offset="0.9995" style="stop-color:#1745EB"/>
			</linearGradient>
			<path style="fill:url(#SVGID_00000098188045960846259780000007439921294513550263_);" d="M664.315,385.256
				c2.094,0.02,3.803,1.703,3.83,3.772c0.028,2.136-1.759,3.904-3.92,3.877c-2.071-0.025-3.797-1.727-3.834-3.782
				C660.352,387.012,662.155,385.236,664.315,385.256z"/>
			
				<linearGradient id="SVGID_00000017513455370674860760000003309630823903715253_" gradientUnits="userSpaceOnUse" x1="637.1143" y1="368.6313" x2="767.8264" y2="371.5577">
				<stop  offset="4.340300e-04" style="stop-color:#FFFFFF"/>
				<stop  offset="0.9995" style="stop-color:#1745EB"/>
			</linearGradient>
			<path style="fill:url(#SVGID_00000017513455370674860760000003309630823903715253_);" d="M695.547,373.756
				c-2.161,0.041-3.844-1.546-3.906-3.685c-0.065-2.233,1.603-3.955,3.831-3.952c2.155,0.002,3.785,1.622,3.806,3.783
				C699.299,372.064,697.701,373.715,695.547,373.756z"/>
			
				<linearGradient id="SVGID_00000102544660608694800620000009708534385098901139_" gradientUnits="userSpaceOnUse" x1="637.4186" y1="355.0299" x2="768.1311" y2="357.9563">
				<stop  offset="4.340300e-04" style="stop-color:#FFFFFF"/>
				<stop  offset="0.9995" style="stop-color:#1745EB"/>
			</linearGradient>
			<path style="fill:url(#SVGID_00000102544660608694800620000009708534385098901139_);" d="M682.878,359.863
				c-2.139,0.011-3.799-1.58-3.86-3.7c-0.063-2.184,1.632-3.926,3.824-3.932c2.153-0.005,3.943,1.786,3.895,3.898
				C686.69,358.204,684.986,359.852,682.878,359.863z"/>
			
				<linearGradient id="SVGID_00000078724405239811374420000013885916461196732332_" gradientUnits="userSpaceOnUse" x1="637.8785" y1="334.4923" x2="768.5906" y2="337.4187">
				<stop  offset="4.340300e-04" style="stop-color:#FFFFFF"/>
				<stop  offset="0.9995" style="stop-color:#1745EB"/>
			</linearGradient>
			<path style="fill:url(#SVGID_00000078724405239811374420000013885916461196732332_);" d="M671.246,335.142
				c-0.007,2.148-1.639,3.82-3.76,3.854c-2.184,0.034-3.892-1.715-3.851-3.944c0.04-2.153,1.695-3.763,3.848-3.74
				C669.621,331.334,671.253,332.995,671.246,335.142z"/>
			
				<linearGradient id="SVGID_00000177458737087843252420000017760570073350572419_" gradientUnits="userSpaceOnUse" x1="637.4452" y1="353.8448" x2="768.157" y2="356.7712">
				<stop  offset="4.340300e-04" style="stop-color:#FFFFFF"/>
				<stop  offset="0.9995" style="stop-color:#1745EB"/>
			</linearGradient>
			<path style="fill:url(#SVGID_00000177458737087843252420000017760570073350572419_);" d="M666.526,358.318
				c-2.168,0.014-3.963-1.761-3.919-3.878c0.042-2.037,1.799-3.752,3.86-3.768c2.141-0.016,3.958,1.793,3.913,3.895
				C670.335,356.644,668.629,358.304,666.526,358.318z"/>
			
				<linearGradient id="SVGID_00000143611313655635271290000008852841883478825347_" gradientUnits="userSpaceOnUse" x1="637.4394" y1="354.1035" x2="768.1512" y2="357.0299">
				<stop  offset="4.340300e-04" style="stop-color:#FFFFFF"/>
				<stop  offset="0.9995" style="stop-color:#1745EB"/>
			</linearGradient>
			<path style="fill:url(#SVGID_00000143611313655635271290000008852841883478825347_);" d="M655.425,354.418
				c0.004,2.119-1.842,3.932-3.943,3.874c-2.028-0.056-3.782-1.843-3.788-3.859c-0.006-2.083,1.89-3.943,3.96-3.886
				C653.682,350.603,655.422,352.388,655.425,354.418z"/>
		</g>
		<g style="clip-path:url(#SVGID_00000018233470786714464350000013782437771096568195_);">
			
				<linearGradient id="SVGID_00000077296380986498038460000010555046141217632387_" gradientUnits="userSpaceOnUse" x1="41.1607" y1="454.1026" x2="328.5983" y2="422.8877">
				<stop  offset="4.340300e-04" style="stop-color:#FFFFFF"/>
				<stop  offset="0.9995" style="stop-color:#1745EB"/>
			</linearGradient>
			<path style="fill:url(#SVGID_00000077296380986498038460000010555046141217632387_);" d="M71.712,451.482
				c-0.012,2.077-1.906,3.91-3.995,3.868c-2.288-0.046-4.53-2.276-4.451-4.427c0.073-2.001,1.9-3.776,3.895-3.784
				C69.411,447.128,71.725,449.336,71.712,451.482z"/>
			
				<linearGradient id="SVGID_00000098197628101178501790000002577780974822462856_" gradientUnits="userSpaceOnUse" x1="39.7819" y1="441.4073" x2="327.2201" y2="410.1923">
				<stop  offset="4.340300e-04" style="stop-color:#FFFFFF"/>
				<stop  offset="0.9995" style="stop-color:#1745EB"/>
			</linearGradient>
			<path style="fill:url(#SVGID_00000098197628101178501790000002577780974822462856_);" d="M84.798,440.724
				c-2.168-0.016-4.378-2.329-4.346-4.546c0.031-2.112,1.877-3.873,4-3.817c2.183,0.058,4.202,2.167,4.222,4.41
				C88.692,438.89,86.879,440.74,84.798,440.724z"/>
			
				<linearGradient id="SVGID_00000178904738003972171370000005253051307997171635_" gradientUnits="userSpaceOnUse" x1="41.6513" y1="458.6207" x2="329.0885" y2="427.4058">
				<stop  offset="4.340300e-04" style="stop-color:#FFFFFF"/>
				<stop  offset="0.9995" style="stop-color:#1745EB"/>
			</linearGradient>
			<path style="fill:url(#SVGID_00000178904738003972171370000005253051307997171635_);" d="M121.818,454.197
				c-2.173,0.049-4.284-2.199-4.285-4.564c-0.001-2.029,1.713-3.843,3.728-3.947c2.127-0.11,4.325,2.125,4.395,4.467
				C125.717,452.22,123.885,454.15,121.818,454.197z"/>
			
				<linearGradient id="SVGID_00000147919630860553775750000006273852332569745550_" gradientUnits="userSpaceOnUse" x1="38.6728" y1="431.19" x2="326.1078" y2="399.9754">
				<stop  offset="4.340300e-04" style="stop-color:#FFFFFF"/>
				<stop  offset="0.9995" style="stop-color:#1745EB"/>
			</linearGradient>
			<path style="fill:url(#SVGID_00000147919630860553775750000006273852332569745550_);" d="M80.521,426.961
				c-0.032,2.492-1.893,4.479-4.114,4.392c-2.035-0.079-3.834-2.009-3.808-4.087c0.03-2.433,1.912-4.494,4.094-4.484
				C78.893,422.794,80.551,424.603,80.521,426.961z"/>
			
				<linearGradient id="SVGID_00000140695375881067999770000014437655040903531446_" gradientUnits="userSpaceOnUse" x1="41.7475" y1="459.502" x2="329.1823" y2="428.2873">
				<stop  offset="4.340300e-04" style="stop-color:#FFFFFF"/>
				<stop  offset="0.9995" style="stop-color:#1745EB"/>
			</linearGradient>
			<path style="fill:url(#SVGID_00000140695375881067999770000014437655040903531446_);" d="M89.321,454.674
				c0.048,2.054-1.843,3.975-3.903,3.967c-2.012-0.008-3.816-1.79-3.859-3.812c-0.045-2.113,1.777-3.964,3.89-3.952
				C87.475,450.888,89.274,452.653,89.321,454.674z"/>
			
				<linearGradient id="SVGID_00000089547808397742790170000007853233766195602601_" gradientUnits="userSpaceOnUse" x1="38.168" y1="426.5429" x2="325.6041" y2="395.3282">
				<stop  offset="4.340300e-04" style="stop-color:#FFFFFF"/>
				<stop  offset="0.9995" style="stop-color:#1745EB"/>
			</linearGradient>
			<path style="fill:url(#SVGID_00000089547808397742790170000007853233766195602601_);" d="M100.883,423.543
				c-2.115-0.028-3.782-1.684-3.799-3.774c-0.018-2.141,1.758-3.892,3.917-3.862c2.098,0.029,3.767,1.7,3.787,3.793
				C104.81,421.887,103.097,423.572,100.883,423.543z"/>
			
				<linearGradient id="SVGID_00000104707157593594775490000017842587779617264517_" gradientUnits="userSpaceOnUse" x1="39.9374" y1="442.8365" x2="327.3738" y2="411.6216">
				<stop  offset="4.340300e-04" style="stop-color:#FFFFFF"/>
				<stop  offset="0.9995" style="stop-color:#1745EB"/>
			</linearGradient>
			<path style="fill:url(#SVGID_00000104707157593594775490000017842587779617264517_);" d="M122.513,434.224
				c0.034,2.187-1.675,3.92-3.853,3.908c-2.123-0.013-3.76-1.643-3.787-3.772c-0.028-2.202,1.674-3.94,3.838-3.921
				C120.793,430.457,122.48,432.137,122.513,434.224z"/>
			
				<linearGradient id="SVGID_00000109009019830400975940000017854944223142386353_" gradientUnits="userSpaceOnUse" x1="40.9144" y1="451.8352" x2="328.3521" y2="420.6203">
				<stop  offset="4.340300e-04" style="stop-color:#FFFFFF"/>
				<stop  offset="0.9995" style="stop-color:#1745EB"/>
			</linearGradient>
			<path style="fill:url(#SVGID_00000109009019830400975940000017854944223142386353_);" d="M101.912,449.022
				c-2.119-0.027-3.816-1.693-3.84-3.768c-0.024-2.113,1.788-3.892,3.941-3.868c2.064,0.023,3.815,1.746,3.844,3.784
				C105.887,447.293,104.088,449.05,101.912,449.022z"/>
			
				<linearGradient id="SVGID_00000069367295444566352440000003929965001447496847_" gradientUnits="userSpaceOnUse" x1="37.8932" y1="424.0187" x2="325.3315" y2="392.8036">
				<stop  offset="4.340300e-04" style="stop-color:#FFFFFF"/>
				<stop  offset="0.9995" style="stop-color:#1745EB"/>
			</linearGradient>
			<path style="fill:url(#SVGID_00000069367295444566352440000003929965001447496847_);" d="M114.975,419.454
				c-2.132-0.006-3.815-1.668-3.825-3.778c-0.01-2.11,1.658-3.805,3.776-3.837c2.198-0.033,3.961,1.708,3.926,3.879
				C118.819,417.806,117.103,419.46,114.975,419.454z"/>
		</g>
		<g style="clip-path:url(#SVGID_00000018233470786714464350000013782437771096568195_);">
			
				<linearGradient id="SVGID_00000063635220928543411850000008158956027671923619_" gradientUnits="userSpaceOnUse" x1="476.8884" y1="53.6497" x2="752.9449" y2="50.7233">
				<stop  offset="4.340300e-04" style="stop-color:#FFFFFF"/>
				<stop  offset="0.9995" style="stop-color:#1745EB"/>
			</linearGradient>
			<path style="fill:url(#SVGID_00000063635220928543411850000008158956027671923619_);" d="M549.138,52.914
				c-0.006-1.929,1.288-3.372,3.029-3.377c1.688-0.004,3.135,1.567,3.096,3.363c-0.041,1.878-1.418,3.297-3.169,3.266
				C550.349,56.135,549.144,54.809,549.138,52.914z"/>
			
				<linearGradient id="SVGID_00000000915857403776794750000001571263898168995721_" gradientUnits="userSpaceOnUse" x1="476.9663" y1="60.9848" x2="753.0231" y2="58.0584">
				<stop  offset="4.340300e-04" style="stop-color:#FFFFFF"/>
				<stop  offset="0.9995" style="stop-color:#1745EB"/>
			</linearGradient>
			<path style="fill:url(#SVGID_00000000915857403776794750000001571263898168995721_);" d="M535.329,57.34
				c1.551,0.021,2.964,1.439,2.977,2.988c0.014,1.615-1.458,3.094-3.051,3.066c-1.62-0.028-3.037-1.528-2.966-3.139
				C532.359,58.671,533.771,57.318,535.329,57.34z"/>
			
				<linearGradient id="SVGID_00000086660759312080119460000001541878453894258049_" gradientUnits="userSpaceOnUse" x1="477.0509" y1="68.9766" x2="753.1075" y2="66.0502">
				<stop  offset="4.340300e-04" style="stop-color:#FFFFFF"/>
				<stop  offset="0.9995" style="stop-color:#1745EB"/>
			</linearGradient>
			<path style="fill:url(#SVGID_00000086660759312080119460000001541878453894258049_);" d="M532.472,71.361
				c-1.681,0.012-3.087-1.378-3.048-3.013c0.038-1.597,1.39-2.918,2.999-2.93c1.673-0.012,3.082,1.389,3.044,3.026
				C535.429,70.059,534.105,71.349,532.472,71.361z"/>
			
				<linearGradient id="SVGID_00000151506846820092821470000001732310306948999336_" gradientUnits="userSpaceOnUse" x1="477.1734" y1="80.4631" x2="753.2271" y2="77.5367">
				<stop  offset="4.340300e-04" style="stop-color:#FFFFFF"/>
				<stop  offset="0.9995" style="stop-color:#1745EB"/>
			</linearGradient>
			<path style="fill:url(#SVGID_00000151506846820092821470000001732310306948999336_);" d="M542.582,79.746
				c0.028,1.723-1.274,3.039-2.999,3.032c-1.668-0.007-2.926-1.253-2.952-2.923c-0.026-1.683,1.183-2.97,2.844-3.028
				C541.21,76.767,542.554,78.029,542.582,79.746z"/>
			
				<linearGradient id="SVGID_00000006692590305516720970000004190747984282286757_" gradientUnits="userSpaceOnUse" x1="477.1256" y1="76.0312" x2="753.1833" y2="73.1048">
				<stop  offset="4.340300e-04" style="stop-color:#FFFFFF"/>
				<stop  offset="0.9995" style="stop-color:#1745EB"/>
			</linearGradient>
			<path style="fill:url(#SVGID_00000006692590305516720970000004190747984282286757_);" d="M523.494,75.515
				c-0.004-1.697,1.371-3.073,3.025-3.026c1.62,0.046,2.896,1.371,2.898,3.007c0.002,1.669-1.399,3.074-3.024,3.033
				C524.807,78.488,523.497,77.126,523.494,75.515z"/>
			
				<linearGradient id="SVGID_00000043428904972172518290000010606054664696629640_" gradientUnits="userSpaceOnUse" x1="477.0789" y1="71.5828" x2="753.1351" y2="68.6564">
				<stop  offset="4.340300e-04" style="stop-color:#FFFFFF"/>
				<stop  offset="0.9995" style="stop-color:#1745EB"/>
			</linearGradient>
			<path style="fill:url(#SVGID_00000043428904972172518290000010606054664696629640_);" d="M541.519,73.92
				c-1.585-0.015-2.967-1.408-2.978-3.001c-0.012-1.646,1.466-3.1,3.088-3.037c1.601,0.062,2.933,1.474,2.898,3.073
				C544.492,72.561,543.099,73.934,541.519,73.92z"/>
			
				<linearGradient id="SVGID_00000059283097482321512340000010301870558344293814_" gradientUnits="userSpaceOnUse" x1="476.9946" y1="63.6436" x2="753.0499" y2="60.7172">
				<stop  offset="4.340300e-04" style="stop-color:#FFFFFF"/>
				<stop  offset="0.9995" style="stop-color:#1745EB"/>
			</linearGradient>
			<path style="fill:url(#SVGID_00000059283097482321512340000010301870558344293814_);" d="M555.534,65.786
				c-1.692,0.025-3.1-1.339-3.084-2.988c0.016-1.59,1.37-2.936,2.979-2.962c1.676-0.026,3.083,1.349,3.072,3.002
				C558.491,64.463,557.184,65.762,555.534,65.786z"/>
			
				<linearGradient id="SVGID_00000166669045068418781350000004175824006480669076_" gradientUnits="userSpaceOnUse" x1="476.8901" y1="53.8332" x2="752.9478" y2="50.9068">
				<stop  offset="4.340300e-04" style="stop-color:#FFFFFF"/>
				<stop  offset="0.9995" style="stop-color:#1745EB"/>
			</linearGradient>
			<path style="fill:url(#SVGID_00000166669045068418781350000004175824006480669076_);" d="M545.677,53.141
				c-0.001,1.572-1.362,2.96-2.947,3.005c-1.609,0.045-3.104-1.406-3.102-3.009c0.002-1.531,1.418-2.971,2.961-3.011
				C544.205,50.084,545.677,51.522,545.677,53.141z"/>
			
				<linearGradient id="SVGID_00000000945192450143913510000010965877265930715578_" gradientUnits="userSpaceOnUse" x1="476.9798" y1="62.2388" x2="753.036" y2="59.3124">
				<stop  offset="4.340300e-04" style="stop-color:#FFFFFF"/>
				<stop  offset="0.9995" style="stop-color:#1745EB"/>
			</linearGradient>
			<path style="fill:url(#SVGID_00000000945192450143913510000010965877265930715578_);" d="M548.115,61.488
				c0.011,1.673-1.389,3.086-3.021,3.051c-1.592-0.034-2.916-1.391-2.927-3c-0.011-1.697,1.362-3.082,3.019-3.045
				C546.799,58.53,548.104,59.864,548.115,61.488z"/>
			
				<linearGradient id="SVGID_00000144338220625050145720000011750860048955615670_" gradientUnits="userSpaceOnUse" x1="476.8724" y1="52.1178" x2="752.9284" y2="49.1914">
				<stop  offset="4.340300e-04" style="stop-color:#FFFFFF"/>
				<stop  offset="0.9995" style="stop-color:#1745EB"/>
			</linearGradient>
			<path style="fill:url(#SVGID_00000144338220625050145720000011750860048955615670_);" d="M531.672,54.507
				c-1.633,0.02-3.01-1.283-3.053-2.887c-0.044-1.677,1.335-3.065,3.034-3.053c1.654,0.012,2.96,1.316,2.964,2.961
				C534.621,53.171,533.32,54.487,531.672,54.507z"/>
			
				<linearGradient id="SVGID_00000117635879029388305820000007995628727330726290_" gradientUnits="userSpaceOnUse" x1="477.1184" y1="75.2421" x2="753.171" y2="72.3158">
				<stop  offset="4.340300e-04" style="stop-color:#FFFFFF"/>
				<stop  offset="0.9995" style="stop-color:#1745EB"/>
			</linearGradient>
			<path style="fill:url(#SVGID_00000117635879029388305820000007995628727330726290_);" d="M553.818,74.436
				c0.025,1.598-1.323,2.968-2.956,3.005c-1.638,0.037-3.026-1.249-3.093-2.864c-0.068-1.626,1.372-3.097,3.027-3.095
				C552.391,71.483,553.793,72.853,553.818,74.436z"/>
			
				<linearGradient id="SVGID_00000025436189790119195480000014605575973389002644_" gradientUnits="userSpaceOnUse" x1="476.9846" y1="62.7441" x2="753.0428" y2="59.8177">
				<stop  offset="4.340300e-04" style="stop-color:#FFFFFF"/>
				<stop  offset="0.9995" style="stop-color:#1745EB"/>
			</linearGradient>
			<path style="fill:url(#SVGID_00000025436189790119195480000014605575973389002644_);" d="M528.832,62.179
				c0.022,1.72-1.284,3.038-2.994,3.024c-1.652-0.014-2.931-1.284-2.949-2.929c-0.02-1.722,1.283-3.036,2.999-3.025
				C527.54,59.259,528.811,60.524,528.832,62.179z"/>
		</g>
		<g style="clip-path:url(#SVGID_00000018233470786714464350000013782437771096568195_);">
			
				<linearGradient id="SVGID_00000183938802063475772410000012962029773255380125_" gradientUnits="userSpaceOnUse" x1="246.4103" y1="76.3966" x2="376.4732" y2="72.4948">
				<stop  offset="4.340300e-04" style="stop-color:#FFFFFF"/>
				<stop  offset="0.9995" style="stop-color:#1745EB"/>
			</linearGradient>
			<path style="fill:url(#SVGID_00000183938802063475772410000012962029773255380125_);" d="M275.418,75.788
				c0,2.249,1.73,3.939,4.041,3.947c2.344,0.008,4.42-2.128,4.468-4.597c0.043-2.201-1.745-4.03-3.984-4.075
				C277.566,71.015,275.419,73.257,275.418,75.788z"/>
			
				<linearGradient id="SVGID_00000090273600861039325050000017181352453576384916_" gradientUnits="userSpaceOnUse" x1="246.3859" y1="75.5755" x2="376.4482" y2="71.6736">
				<stop  offset="4.340300e-04" style="stop-color:#FFFFFF"/>
				<stop  offset="0.9995" style="stop-color:#1745EB"/>
			</linearGradient>
			<path style="fill:url(#SVGID_00000090273600861039325050000017181352453576384916_);" d="M261.137,75.063
				c-0.048-2.477-1.709-4.079-4.153-4.008c-2.528,0.074-4.325,1.804-4.325,4.162c0,2.477,1.888,4.279,4.439,4.238
				C259.496,79.417,261.186,77.579,261.137,75.063z"/>
			
				<linearGradient id="SVGID_00000171679336829004309730000018169582889088758444_" gradientUnits="userSpaceOnUse" x1="245.687" y1="52.2842" x2="375.7496" y2="48.3823">
				<stop  offset="4.340300e-04" style="stop-color:#FFFFFF"/>
				<stop  offset="0.9995" style="stop-color:#1745EB"/>
			</linearGradient>
			<path style="fill:url(#SVGID_00000171679336829004309730000018169582889088758444_);" d="M281.486,51.309
				c0.003,2.34,1.743,4.148,3.942,4.095c2.349-0.056,4.444-2.25,4.458-4.669c0.012-2.173-1.878-4.002-4.098-3.966
				C283.478,46.807,281.483,48.912,281.486,51.309z"/>
			
				<linearGradient id="SVGID_00000121961240388751958940000013808170751692766141_" gradientUnits="userSpaceOnUse" x1="245.4933" y1="45.8221" x2="375.5551" y2="41.9202">
				<stop  offset="4.340300e-04" style="stop-color:#FFFFFF"/>
				<stop  offset="0.9995" style="stop-color:#1745EB"/>
			</linearGradient>
			<path style="fill:url(#SVGID_00000121961240388751958940000013808170751692766141_);" d="M266.12,45.135
				c-0.001-2.2-1.84-4-4.073-3.986c-2.292,0.014-4.144,1.887-4.145,4.191c-0.001,2.417,1.719,4.161,4.102,4.161
				C264.426,49.502,266.121,47.703,266.12,45.135z"/>
			
				<linearGradient id="SVGID_00000060740959037368230600000002461800777940459433_" gradientUnits="userSpaceOnUse" x1="245.9486" y1="60.9903" x2="376.0097" y2="57.0885">
				<stop  offset="4.340300e-04" style="stop-color:#FFFFFF"/>
				<stop  offset="0.9995" style="stop-color:#1745EB"/>
			</linearGradient>
			<path style="fill:url(#SVGID_00000060740959037368230600000002461800777940459433_);" d="M273.614,60.026
				c-0.018-2.188-1.899-3.96-4.147-3.907c-2.379,0.056-4.173,1.985-4.115,4.424c0.052,2.196,1.77,3.89,3.964,3.908
				C271.806,64.472,273.635,62.589,273.614,60.026z"/>
			
				<linearGradient id="SVGID_00000101062719496162453280000002670165382629850810_" gradientUnits="userSpaceOnUse" x1="245.3195" y1="40.0358" x2="375.3821" y2="36.1339">
				<stop  offset="4.340300e-04" style="stop-color:#FFFFFF"/>
				<stop  offset="0.9995" style="stop-color:#1745EB"/>
			</linearGradient>
			<path style="fill:url(#SVGID_00000101062719496162453280000002670165382629850810_);" d="M275.318,34.944
				c-2.179-0.028-4.169,2.019-4.255,4.378c-0.082,2.228,1.67,3.983,4.007,4.014c2.216,0.029,4.065-1.865,4.117-4.219
				C279.237,36.805,277.538,34.972,275.318,34.944z"/>
			
				<linearGradient id="SVGID_00000088843507637510928240000002873577654181602963_" gradientUnits="userSpaceOnUse" x1="245.8839" y1="58.8426" x2="375.945" y2="54.9408">
				<stop  offset="4.340300e-04" style="stop-color:#FFFFFF"/>
				<stop  offset="0.9995" style="stop-color:#1745EB"/>
			</linearGradient>
			<path style="fill:url(#SVGID_00000088843507637510928240000002873577654181602963_);" d="M251.214,62.621
				c2.219-0.027,3.886-1.835,3.83-4.152c-0.053-2.169-1.762-3.745-4.034-3.718c-2.249,0.027-3.925,1.706-3.866,3.873
				C247.204,60.846,249.039,62.648,251.214,62.621z"/>
		</g>
		<g style="clip-path:url(#SVGID_00000018233470786714464350000013782437771096568195_);">
			<g>
				
					<linearGradient id="SVGID_00000135691048309581403900000016290208039867752590_" gradientUnits="userSpaceOnUse" x1="51.0051" y1="364.6592" x2="184.9017" y2="580.8068">
					<stop  offset="0" style="stop-color:#FE8EDC"/>
					<stop  offset="0.9995" style="stop-color:#1745EB"/>
				</linearGradient>
				<path style="fill:url(#SVGID_00000135691048309581403900000016290208039867752590_);" d="M-49.916,429.41
					c26.16-3.886,51.737-10.902,76.747-19.405c12.06-4.1,23.922-8.614,35.648-13.59c11.657-4.947,23.244-10.09,35.17-14.371
					c5.845-2.098,11.768-3.99,17.786-5.529c6.044-1.546,12.306-3.022,18.576-3.037c5.325-0.013,11.051,1.256,14.893,5.193
					c2.71,2.778,3.962,6.571,3.922,10.409c-0.101,9.761-7.277,16.488-15.002,21.318c-4.683,2.928-9.635,5.403-14.258,8.431
					c-3.049,1.997-6.732,4.297-8.712,7.47c-5.676,9.093,14.453,11.003,18.989,11.488c10.863,1.162,22.05,1.438,32.959,0.715
					c4.109-0.273,8.199-0.837,12.306-1.153c6.254-0.481,12.536-0.726,18.806-0.468c12.168,0.501,24.378,3.066,34.976,9.265
					c9.214,5.389,17.088,13.428,21.075,23.443c4.093,10.281,4.143,21.717,1.515,32.366c-5.201,21.075-20.543,37.481-36.931,50.842
					c-16.654,13.578-35.184,24.581-52.952,36.588c-4.136,2.795-8.231,5.649-12.245,8.616c-1.536,1.135-0.041,3.74,1.514,2.59
					c17.342-12.814,36.05-23.641,53.52-36.275c17.077-12.35,34.432-26.886,44.15-46.004c9.955-19.583,11.407-44.3-3.083-62.069
					c-6.909-8.473-16.526-14.511-26.802-18.044c-12.086-4.155-25.067-4.845-37.74-4.22c-7.342,0.362-14.623,1.466-21.968,1.699
					c-5.752,0.183-11.516,0.148-17.267-0.073c-6.219-0.239-12.493-0.636-18.618-1.792c-2.293-0.433-4.84-1.01-6.874-1.878
					c-0.75-0.32-1.746-0.853-2.234-1.243c-0.07-0.056-0.486-0.44-0.663-0.657c0.178,0.218-0.347-0.627-0.223-0.376
					c-0.22-0.445-0.177-0.668,0.052-1.245c-0.002,0.005,0.244-0.48,0.451-0.787c0.246-0.364,0.472-0.609,0.85-0.996
					c3.634-3.713,8.358-6.375,12.832-8.93c8.648-4.94,18.482-10.02,22.614-19.659c3.186-7.431,2.673-16.77-3.753-22.352
					c-9.138-7.939-22.703-5.156-33.352-2.593c-24.879,5.989-47.703,17.967-71.459,27.122c-24.829,9.568-50.569,17.49-76.638,22.862
					c-6.425,1.324-12.886,2.473-19.375,3.437C-52.616,426.8-51.807,429.691-49.916,429.41L-49.916,429.41z"/>
			</g>
		</g>
		<g style="clip-path:url(#SVGID_00000018233470786714464350000013782437771096568195_);">
			<g>
				
					<linearGradient id="SVGID_00000151538471897482515210000004130659850898127543_" gradientUnits="userSpaceOnUse" x1="670.9331" y1="171.7514" x2="751.2214" y2="301.3598">
					<stop  offset="0" style="stop-color:#5C72FF"/>
					<stop  offset="0.9995" style="stop-color:#1745EB"/>
				</linearGradient>
				<path style="fill:url(#SVGID_00000151538471897482515210000004130659850898127543_);" d="M770.724,212.034
					c-14.675,4.162-30.295,8.633-45.583,5.146c-6.247-1.425-12.333-4.096-17.156-8.38c-5.355-4.756-8.043-11.251-11.712-17.234
					c-3.304-5.387-7.731-9.755-13.564-12.319c-5.378-2.365-11.317-3.242-17.142-2.442c-6.129,0.842-11.447,3.673-16.058,7.729
					c-4.768,4.193-8.665,9.272-13.465,13.432c-2.349,2.036-4.926,3.726-7.774,4.978c-2.694,1.184-5.565,2.1-8.009,3.78
					c-2.495,1.715-4.372,4.153-4.823,7.205c-0.482,3.262,0.566,6.55,2.207,9.348c3.402,5.801,9.4,10.112,15.601,12.476
					c6.652,2.537,13.77,2.186,20.745,2.756c3.408,0.278,6.909,0.827,10.022,2.312c3.2,1.527,5.735,3.962,8.084,6.569
					c4.615,5.124,9.134,10.152,14.483,14.542c10.451,8.576,22.572,15.061,35.52,18.96c13.331,4.014,27.448,5.159,41.252,3.354
					c14.066-1.839,27.739-6.554,39.871-13.926c2.974-1.807,5.844-3.777,8.61-5.889c1.514-1.156,0.021-3.763-1.514-2.59
					c-21.971,16.777-50.941,23.852-78.122,18.474c-12.954-2.563-25.326-7.754-36.272-15.134
					c-5.526-3.726-10.661-8.018-15.306-12.799c-4.671-4.807-8.588-10.885-14.727-13.973c-6.064-3.051-12.982-2.954-19.597-3.318
					c-6.933-0.381-13.397-1.852-19.114-5.979c-2.663-1.923-5.148-4.352-6.845-7.18c-1.575-2.625-2.724-5.986-1.57-8.996
					c1.036-2.702,3.655-4.204,6.153-5.348c2.581-1.181,5.285-2.077,7.751-3.503c10.596-6.128,16.299-18.92,28.164-23.079
					c10.791-3.783,23.787-0.302,30.73,8.918c4.224,5.608,6.593,12.376,11.148,17.768c3.995,4.729,9.329,8.127,15.059,10.367
					c13.709,5.361,28.703,3.399,42.608-0.097c3.734-0.939,7.44-1.987,11.144-3.038C773.376,214.4,772.587,211.505,770.724,212.034
					L770.724,212.034z"/>
			</g>
		</g>
		<g style="clip-path:url(#SVGID_00000018233470786714464350000013782437771096568195_);">
			<g>
				
					<linearGradient id="SVGID_00000086680571699089176690000010427003598899391886_" gradientUnits="userSpaceOnUse" x1="433.2551" y1="41.7263" x2="633.9667" y2="41.7263">
					<stop  offset="0" style="stop-color:#5C72FF"/>
					<stop  offset="0.9995" style="stop-color:#1745EB"/>
				</linearGradient>
				<path style="fill:url(#SVGID_00000086680571699089176690000010427003598899391886_);" d="M490.105-12.641
					c-19.63,18.911-39.268,39.36-50.234,64.723c-5.67,13.114-10.021,28.482-6.236,42.704c3.172,11.922,12.919,22.226,25.758,22.681
					c13.176,0.467,25.011-8.513,32.801-18.362c4.321-5.463,7.987-11.384,11.816-17.191c3.835-5.817,7.882-11.872,13.157-16.502
					c2.696-2.366,5.654-3.466,9.219-3.67c3.446-0.198,6.84-0.142,10.241-0.845c6.181-1.278,11.984-4.301,16.669-8.515
					c2.247-2.022,4.231-4.355,5.873-6.894c1.671-2.584,2.973-5.381,4.405-8.098c1.389-2.636,2.893-5.275,5.032-7.383
					c2.342-2.308,5.289-3.507,8.491-4.076c3.243-0.577,6.563-0.552,9.837-0.848c3.307-0.298,6.492-0.939,9.555-2.246
					c5.903-2.517,10.767-6.932,14.976-11.686c4.368-4.934,8.388-10.271,12.191-15.648c4.004-5.661,7.647-11.72,9.689-18.39
					c0.963-3.146,1.513-6.408,1.623-9.696c0.065-1.931-2.935-1.929-3,0c-0.458,13.678-9.585,25.232-17.641,35.556
					c-3.805,4.876-7.841,9.799-12.841,13.509c-2.415,1.792-5.061,3.318-7.917,4.282c-3.089,1.042-6.295,1.329-9.529,1.527
					c-6.342,0.388-12.784,0.892-17.556,5.595c-4.197,4.136-6.19,9.857-9.134,14.836c-3.092,5.229-7.627,9.443-13.005,12.254
					c-2.682,1.402-5.552,2.416-8.516,3.028c-3.277,0.677-6.568,0.532-9.886,0.765c-3.444,0.242-6.557,1.174-9.343,3.261
					c-2.644,1.981-4.877,4.493-6.974,7.03c-4.341,5.251-7.992,11.011-11.708,16.707c-7.1,10.885-15.133,22.031-27.784,26.792
					c-5.72,2.153-11.963,2.669-17.759,0.493c-5.512-2.069-9.905-6.491-12.776-11.54c-7.085-12.46-4.393-27.752,0.044-40.627
					c8.701-25.248,26.796-45.906,45.443-64.431c2.36-2.345,4.744-4.666,7.14-6.974C493.62-11.862,491.497-13.982,490.105-12.641
					L490.105-12.641z"/>
			</g>
		</g>
		<g style="clip-path:url(#SVGID_00000018233470786714464350000013782437771096568195_);">
			<g>
				<g>
					
						<linearGradient id="SVGID_00000036220667764361275940000011406506359731229602_" gradientUnits="userSpaceOnUse" x1="347.1533" y1="89.5972" x2="383.007" y2="89.5972">
						<stop  offset="0" style="stop-color:#FE8EDC"/>
						<stop  offset="0.9995" style="stop-color:#1745EB"/>
					</linearGradient>
					<path style="fill:url(#SVGID_00000036220667764361275940000011406506359731229602_);" d="M346.476,68.62
						c12.008,14.328,23.627,28.978,34.836,43.938c1.144,1.527,3.75,0.033,2.59-1.514c-11.362-15.165-23.133-30.022-35.305-44.546
						C347.356,65.017,345.243,67.149,346.476,68.62L346.476,68.62z"/>
				</g>
			</g>
			<g>
				<g>
					
						<linearGradient id="SVGID_00000136398209902466616940000007529560019953809068_" gradientUnits="userSpaceOnUse" x1="367.371" y1="42.631" x2="396.6973" y2="42.631">
						<stop  offset="0" style="stop-color:#FE8EDC"/>
						<stop  offset="0.9995" style="stop-color:#1745EB"/>
					</linearGradient>
					<path style="fill:url(#SVGID_00000136398209902466616940000007529560019953809068_);" d="M367.375,42.717
						c9.676,0.091,19.319,1.017,28.831,2.799c1.887,0.353,2.696-2.537,0.798-2.893c-9.772-1.83-19.686-2.813-29.628-2.906
						C365.444,39.698,365.442,42.698,367.375,42.717L367.375,42.717z"/>
				</g>
			</g>
			<g>
				<g>
					
						<linearGradient id="SVGID_00000056418402959937269410000004453583472784411777_" gradientUnits="userSpaceOnUse" x1="321.8484" y1="102.7769" x2="325.5462" y2="102.7769">
						<stop  offset="0" style="stop-color:#FE8EDC"/>
						<stop  offset="0.9995" style="stop-color:#1745EB"/>
					</linearGradient>
					<path style="fill:url(#SVGID_00000056418402959937269410000004453583472784411777_);" d="M320.845,83.916
						c1.366,12.531,2.267,25.108,2.701,37.706c0.066,1.925,3.067,1.934,3,0c-0.434-12.598-1.335-25.175-2.701-37.706
						C323.638,82.017,320.636,81.996,320.845,83.916L320.845,83.916z"/>
				</g>
			</g>
			<g>
				<g>
					
						<linearGradient id="SVGID_00000052065561727079278870000008761396237767649706_" gradientUnits="userSpaceOnUse" x1="333.5208" y1="95.9088" x2="356.2877" y2="95.9088">
						<stop  offset="0" style="stop-color:#FE8EDC"/>
						<stop  offset="0.9995" style="stop-color:#1745EB"/>
					</linearGradient>
					<path style="fill:url(#SVGID_00000052065561727079278870000008761396237767649706_);" d="M332.673,75.981
						c6.942,13.983,14.239,27.787,21.883,41.398c0.946,1.684,3.538,0.173,2.591-1.514c-7.644-13.611-14.941-27.416-21.883-41.398
						C334.405,72.737,331.817,74.255,332.673,75.981L332.673,75.981z"/>
				</g>
			</g>
			<g>
				<g>
					
						<linearGradient id="SVGID_00000047782372158099061680000013866948388229422747_" gradientUnits="userSpaceOnUse" x1="358.1256" y1="71.3953" x2="426.5164" y2="71.3953">
						<stop  offset="0" style="stop-color:#FE8EDC"/>
						<stop  offset="0.9995" style="stop-color:#1745EB"/>
					</linearGradient>
					<path style="fill:url(#SVGID_00000047782372158099061680000013866948388229422747_);" d="M357.581,56.746
						c17.629,8.272,35.258,16.543,52.887,24.814c5.026,2.358,10.052,4.716,15.079,7.075c1.738,0.815,3.262-1.77,1.514-2.59
						c-17.629-8.271-35.258-16.543-52.888-24.814c-5.026-2.358-10.052-4.716-15.079-7.075
						C357.357,53.34,355.832,55.926,357.581,56.746L357.581,56.746z"/>
				</g>
			</g>
			<g>
				<g>
					
						<linearGradient id="SVGID_00000171720322095592327230000012131077845627593098_" gradientUnits="userSpaceOnUse" x1="375.8022" y1="26.9867" x2="401.2163" y2="26.9867">
						<stop  offset="0" style="stop-color:#FE8EDC"/>
						<stop  offset="0.9995" style="stop-color:#1745EB"/>
					</linearGradient>
					<path style="fill:url(#SVGID_00000171720322095592327230000012131077845627593098_);" d="M375.824,27.942
						c8.457,0.363,16.914,0.726,25.371,1.089c1.93,0.083,1.927-2.917,0-3c-8.457-0.363-16.914-0.726-25.371-1.089
						C373.893,24.859,373.897,27.859,375.824,27.942L375.824,27.942z"/>
				</g>
			</g>
		</g>
		<g style="clip-path:url(#SVGID_00000018233470786714464350000013782437771096568195_);">
			<g>
				
					<linearGradient id="SVGID_00000070814978240132281210000004024108448840751508_" gradientUnits="userSpaceOnUse" x1="241.462" y1="40.4443" x2="145.6437" y2="-39.7174">
					<stop  offset="0" style="stop-color:#FFFFFF"/>
					<stop  offset="0.9995" style="stop-color:#1745EB"/>
				</linearGradient>
				<path style="fill:url(#SVGID_00000070814978240132281210000004024108448840751508_);" d="M117.32-6.056
					c7.452,6.058,13.86,13.324,18.884,21.512c5.284,8.61,8.503,17.977,11.25,27.646c2.737,9.633,5.268,19.63,10.45,28.304
					c4.401,7.366,10.755,14.051,18.739,17.479c7.839,3.365,16.575,2.896,23.988-1.347c7.336-4.2,12.878-11.317,16.279-18.961
					c4.253-9.559,5.418-20.114,6.586-30.405c1.129-9.945,2.609-19.723,5.624-29.295c5.672-18.008,15.556-34.686,28.677-48.265
					c1.598-1.654,3.246-3.258,4.934-4.82c1.42-1.314-0.705-3.431-2.121-2.121c-13.616,12.596-24.258,28.233-31.17,45.434
					c-3.481,8.662-5.973,17.707-7.402,26.933c-1.616,10.437-2.051,21.074-4.559,31.364c-2.103,8.633-5.896,16.84-12.396,23.052
					c-5.912,5.65-13.964,8.96-22.175,7.287c-8.28-1.687-15.191-7.511-20.032-14.226c-5.714-7.924-8.595-17.368-11.24-26.658
					c-2.737-9.613-5.41-19.218-10.099-28.102c-4.365-8.272-10.096-15.862-16.859-22.324c-1.682-1.608-3.432-3.141-5.238-4.609
					C117.956-9.385,115.821-7.275,117.32-6.056L117.32-6.056z"/>
			</g>
		</g>
		<g style="clip-path:url(#SVGID_00000018233470786714464350000013782437771096568195_);">
			<g>
				<g>
					
						<linearGradient id="SVGID_00000044897561025502373340000017149394819811769742_" gradientUnits="userSpaceOnUse" x1="205.5639" y1="120.9586" x2="220.6905" y2="120.9586">
						<stop  offset="0" style="stop-color:#5C72FF"/>
						<stop  offset="0.9995" style="stop-color:#1745EB"/>
					</linearGradient>
					<path style="fill:url(#SVGID_00000044897561025502373340000017149394819811769742_);" d="M221.567,130.019
						c-4.503-6.878-9.366-13.512-14.555-19.889c-0.515-0.633-1.584-0.525-2.121,0c-0.628,0.615-0.508,1.496,0,2.121
						c5.028,6.178,9.723,12.618,14.086,19.282C220.03,133.142,222.629,131.641,221.567,130.019L221.567,130.019z"/>
				</g>
			</g>
			<g>
				<g>
					
						<linearGradient id="SVGID_00000177481862844960941170000000120164742872943248_" gradientUnits="userSpaceOnUse" x1="195.4589" y1="126.1466" x2="202.8188" y2="126.1466">
						<stop  offset="0" style="stop-color:#5C72FF"/>
						<stop  offset="0.9995" style="stop-color:#1745EB"/>
					</linearGradient>
					<path style="fill:url(#SVGID_00000177481862844960941170000000120164742872943248_);" d="M203.78,137.209
						c-1.943-7.699-4.076-15.348-6.397-22.942c-0.563-1.841-3.459-1.056-2.893,0.798c2.321,7.594,4.454,15.243,6.397,22.942
						C201.36,139.878,204.254,139.085,203.78,137.209L203.78,137.209z"/>
				</g>
			</g>
			<g>
				<g>
					
						<linearGradient id="SVGID_00000078730761640073313630000008187508555549183418_" gradientUnits="userSpaceOnUse" x1="181.2776" y1="127.4722" x2="185.5256" y2="127.4722">
						<stop  offset="0" style="stop-color:#5C72FF"/>
						<stop  offset="0.9995" style="stop-color:#1745EB"/>
					</linearGradient>
					<path style="fill:url(#SVGID_00000078730761640073313630000008187508555549183418_);" d="M183.211,138.775
						c1.692-7.312,2.797-14.75,3.316-22.237c0.133-1.927-2.867-1.919-3,0c-0.501,7.225-1.576,14.384-3.209,21.44
						C179.883,139.856,182.775,140.658,183.211,138.775L183.211,138.775z"/>
				</g>
			</g>
			<g>
				<g>
					
						<linearGradient id="SVGID_00000041977246871591291730000004841707909587254680_" gradientUnits="userSpaceOnUse" x1="159.3113" y1="125.7656" x2="168.9948" y2="125.7656">
						<stop  offset="0" style="stop-color:#5C72FF"/>
						<stop  offset="0.9995" style="stop-color:#1745EB"/>
					</linearGradient>
					<path style="fill:url(#SVGID_00000041977246871591291730000004841707909587254680_);" d="M161.225,137.68
						c2.916-7.677,5.833-15.354,8.749-23.03c0.686-1.807-2.213-2.588-2.893-0.798c-2.916,7.677-5.832,15.354-8.749,23.03
						C157.646,138.689,160.545,139.47,161.225,137.68L161.225,137.68z"/>
				</g>
			</g>
		</g>
		<g style="clip-path:url(#SVGID_00000018233470786714464350000013782437771096568195_);">
			<g>
				<g>
					
						<linearGradient id="SVGID_00000054267934490759984150000001170603097473332668_" gradientUnits="userSpaceOnUse" x1="12.6521" y1="297.3887" x2="84.2991" y2="297.3887">
						<stop  offset="0" style="stop-color:#FE8EDC"/>
						<stop  offset="0.9995" style="stop-color:#1745EB"/>
					</linearGradient>
					<path style="fill:url(#SVGID_00000054267934490759984150000001170603097473332668_);" d="M13.165,315.192
						c20.146-4.737,40.726-10.455,58.166-21.997c4.904-3.245,9.508-6.943,13.675-11.094c1.37-1.364-0.751-3.486-2.121-2.121
						c-14.579,14.521-34.031,22.444-53.518,27.972c-5.628,1.596-11.306,3.009-16.999,4.347
						C10.489,312.741,11.284,315.634,13.165,315.192L13.165,315.192z"/>
				</g>
			</g>
			<g>
				<g>
					
						<linearGradient id="SVGID_00000119090670365258104180000011472462265620172692_" gradientUnits="userSpaceOnUse" x1="18.4142" y1="307.3546" x2="95.6099" y2="307.3546">
						<stop  offset="0" style="stop-color:#FE8EDC"/>
						<stop  offset="0.9995" style="stop-color:#1745EB"/>
					</linearGradient>
					<path style="fill:url(#SVGID_00000119090670365258104180000011472462265620172692_);" d="M18.447,329.15
						c23.532-1.578,46.238-11.095,64.056-26.516c5.04-4.362,9.653-9.199,13.774-14.437c1.181-1.501-0.928-3.638-2.121-2.121
						c-14.217,18.071-34.375,31.137-56.606,36.954c-6.258,1.637-12.649,2.688-19.103,3.121
						C16.531,326.278,16.516,329.279,18.447,329.15L18.447,329.15z"/>
				</g>
			</g>
			<g>
				<g>
					
						<linearGradient id="SVGID_00000018929702863897783050000012681871669097624482_" gradientUnits="userSpaceOnUse" x1="24.6438" y1="321.9178" x2="110.7158" y2="321.9178">
						<stop  offset="0" style="stop-color:#FE8EDC"/>
						<stop  offset="0.9995" style="stop-color:#1745EB"/>
					</linearGradient>
					<path style="fill:url(#SVGID_00000018929702863897783050000012681871669097624482_);" d="M25.644,345.91
						c6.483-3.556,13.698-5.304,20.858-6.921c6.393-1.444,12.747-2.949,18.965-5.038c11.869-3.987,23.358-9.656,32.851-17.921
						c5.263-4.582,9.799-9.99,13.258-16.056c0.958-1.68-1.633-3.193-2.59-1.514C96.247,320.794,70.803,330.454,47,335.804
						c-7.849,1.764-15.759,3.615-22.87,7.515C22.436,344.248,23.948,346.84,25.644,345.91L25.644,345.91z"/>
				</g>
			</g>
		</g>
		
			<linearGradient id="SVGID_00000116928729885376163940000006892034122792886149_" gradientUnits="userSpaceOnUse" x1="158.5434" y1="181.1865" x2="184.3553" y2="214.4424" gradientTransform="matrix(0.79 0.6131 -0.6131 0.79 157.8622 -87.3334)">
			<stop  offset="0" style="stop-color:#FFBDD3"/>
			<stop  offset="0.9995" style="stop-color:#1745EB"/>
		</linearGradient>
		
			<ellipse style="clip-path:url(#SVGID_00000018233470786714464350000013782437771096568195_);fill:none;stroke:url(#SVGID_00000116928729885376163940000006892034122792886149_);stroke-width:2.4569;stroke-miterlimit:10;" cx="172.027" cy="174.056" rx="30.307" ry="19.82"/>
		
			<linearGradient id="SVGID_00000084501134534234008670000015391480743323504830_" gradientUnits="userSpaceOnUse" x1="652.3777" y1="61.6045" x2="673.2931" y2="88.5517" gradientTransform="matrix(0.7202 0.6938 -0.6938 0.7202 193.196 -465.379)">
			<stop  offset="0" style="stop-color:#FFBDD3"/>
			<stop  offset="0.9995" style="stop-color:#1745EB"/>
		</linearGradient>
		
			<path style="clip-path:url(#SVGID_00000018233470786714464350000013782437771096568195_);fill:none;stroke:url(#SVGID_00000084501134534234008670000015391480743323504830_);stroke-width:3;stroke-miterlimit:10;" d="
			M616.824,64.035c-17.888-1.916-31.647-10.395-30.732-18.938c0.915-8.542,16.158-13.914,34.046-11.998
			c17.888,1.916,31.647,10.395,30.732,18.937C649.954,60.58,634.712,65.951,616.824,64.035z"/>
		
			<linearGradient id="SVGID_00000023990958764898335160000011164395874508371877_" gradientUnits="userSpaceOnUse" x1="253.6256" y1="435.6442" x2="296.2623" y2="435.6442" gradientTransform="matrix(0.7091 0.9356 0.8132 -0.8806 -255.1237 542.9458)">
			<stop  offset="0" style="stop-color:#5C72FF"/>
			<stop  offset="0.9995" style="stop-color:#1745EB"/>
		</linearGradient>
		
			<path style="clip-path:url(#SVGID_00000018233470786714464350000013782437771096568195_);fill:none;stroke:url(#SVGID_00000023990958764898335160000011164395874508371877_);stroke-width:3;stroke-miterlimit:10;" d="
			M292.508,431.465c14.42,1.545,26.825-3.878,27.707-12.113c0.882-8.234-10.093-16.162-24.513-17.707
			c-14.42-1.545-26.825,3.878-27.708,12.113C267.113,421.992,278.087,429.92,292.508,431.465z"/>
		<g style="clip-path:url(#SVGID_00000018233470786714464350000013782437771096568195_);">
			<g>
				<g>
					
						<linearGradient id="SVGID_00000062902439929815648340000010722237375852486538_" gradientUnits="userSpaceOnUse" x1="357.5082" y1="439.8169" x2="777.0441" y2="439.8169">
						<stop  offset="0" style="stop-color:#FFBDD3"/>
						<stop  offset="0.9995" style="stop-color:#1745EB"/>
					</linearGradient>
					<path style="fill:url(#SVGID_00000062902439929815648340000010722237375852486538_);" d="M358.052,475.49
						c14.704-4.373,30.339-3.925,45.043-8.264c7.473-2.205,14.101-5.863,20.254-10.611c6.265-4.835,12.067-10.222,18.5-14.847
						c13.129-9.439,27.603-16.771,42.106-23.828c6.947-3.38,13.894-6.836,21.344-8.984c6.782-1.955,14.266-2.903,21.008-0.275
						c7.102,2.769,11.034,9.59,17.057,13.87c5.445,3.87,12.156,5.037,18.706,5.177c7.191,0.153,14.362-0.784,21.554-0.511
						c7.3,0.277,13.713,2.382,19.833,6.351c5.773,3.743,10.982,8.339,17.031,11.657c6.844,3.754,14.318,4.933,22.058,4.609
						c8.44-0.353,16.782-2.069,25.248-1.984c8.165,0.083,16.202,1.745,24.052,3.88c14.52,3.949,28.726,9.661,43.864,10.757
						c12.244,0.887,25.583-0.94,35.604-8.547c2.405-1.825,4.533-3.928,6.392-6.305c1.176-1.504-0.933-3.641-2.121-2.121
						c-8.024,10.262-20.927,14.021-33.52,14.171c-14.971,0.178-29.053-4.849-43.216-9.069c-7.604-2.266-15.294-4.291-23.187-5.237
						c-8.266-0.99-16.35-0.148-24.578,0.747c-8.172,0.889-16.66,1.565-24.522-1.366c-6.531-2.434-12.015-7.014-17.608-11.038
						c-5.516-3.969-11.351-7.47-18.118-8.733c-6.892-1.286-13.92-0.746-20.872-0.422c-6.848,0.319-14.084,0.58-20.548-2.086
						c-6.967-2.873-10.865-9.471-16.806-13.748c-11.85-8.531-27.433-3.725-39.534,1.58c-14.406,6.316-28.733,13.583-42.133,21.825
						c-6.697,4.119-13.115,8.655-19.174,13.667c-6.126,5.069-12.046,10.513-19.083,14.322c-13.561,7.34-29.509,7.362-44.358,9.929
						c-3.738,0.646-7.439,1.46-11.076,2.542C355.408,473.146,356.194,476.043,358.052,475.49L358.052,475.49z"/>
				</g>
			</g>
			<g>
				<g>
					
						<linearGradient id="SVGID_00000065052552386304929600000012838700402174573472_" gradientUnits="userSpaceOnUse" x1="353.3826" y1="418.2735" x2="789.467" y2="418.2735">
						<stop  offset="0" style="stop-color:#FFBDD3"/>
						<stop  offset="0.9995" style="stop-color:#1745EB"/>
					</linearGradient>
					<path style="fill:url(#SVGID_00000065052552386304929600000012838700402174573472_);" d="M353.425,461.757
						c29.302-2.498,60.567-6.017,82.564-27.652c5.927-5.829,11.211-12.271,17.127-18.114c5.849-5.775,12.099-11.153,18.698-16.053
						c6.5-4.827,13.33-9.209,20.426-13.107c6.643-3.649,13.673-6.711,21.136-8.204c7.135-1.428,14.879-1.25,21.352,2.404
						c6.482,3.659,10.443,10.401,16.86,14.189c11.777,6.951,26.326,4.724,39.352,5.546c7.014,0.442,13.986,1.813,19.923,5.763
						c6.428,4.276,11.398,10.446,18.392,13.921c6.817,3.387,14.438,4.422,21.946,4.978c8.503,0.629,16.947,1.027,25.379,2.405
						c33.39,5.455,66.669,19.536,100.998,13.109c4.122-0.772,8.165-1.869,12.116-3.273c1.806-0.642,1.028-3.542-0.798-2.893
						c-33.565,11.931-68.613-1.195-101.729-8.014c-8.454-1.741-16.99-3.095-25.607-3.687c-7.808-0.536-15.746-0.597-23.374-2.537
						c-3.855-0.98-7.547-2.469-10.875-4.664c-3.318-2.188-6.212-4.932-9.224-7.507c-5.417-4.632-11.171-8.031-18.21-9.478
						c-13.293-2.731-27.321,0.424-40.404-3.506c-3.297-0.991-6.42-2.506-9.138-4.633c-3.087-2.415-5.603-5.459-8.475-8.109
						c-5.168-4.769-11.483-7.408-18.506-7.795c-14.789-0.814-28.993,6.801-41.143,14.384c-13.663,8.527-26.136,18.888-37.076,30.702
						c-5.565,6.01-10.885,12.316-17.301,17.459c-5.863,4.699-12.555,8.372-19.531,11.131c-13.914,5.502-28.886,7.724-43.692,9.216
						c-3.726,0.375-7.457,0.703-11.189,1.021C351.516,458.92,351.499,461.921,353.425,461.757L353.425,461.757z"/>
				</g>
			</g>
			<g>
				<g>
					
						<linearGradient id="SVGID_00000132084506785554423890000017984202190785359774_" gradientUnits="userSpaceOnUse" x1="351.7171" y1="396.1099" x2="816.7892" y2="396.1099">
						<stop  offset="0" style="stop-color:#FFFFFF"/>
						<stop  offset="0.9995" style="stop-color:#1745EB"/>
					</linearGradient>
					<path style="fill:url(#SVGID_00000132084506785554423890000017984202190785359774_);" d="M351.459,436.188
						c31.485,8.991,60.398-12.936,81.75-33.388c22.102-21.17,46.091-46.922,79.396-45.804c7.404,0.249,14.731,2.141,21.123,5.936
						c6.793,4.032,12.275,9.935,19.842,12.652c14.922,5.357,31.076-0.917,46.189,3.144c7.664,2.059,13.944,7.066,20.256,11.639
						c6.473,4.69,13.302,8.417,20.875,11.017c7.816,2.684,15.95,4.295,24.072,5.733c9.095,1.611,18.212,3.097,27.343,4.489
						c36.705,5.598,73.662,9.539,110.723,11.786c4.578,0.278,9.157,0.527,13.738,0.755c1.93,0.096,1.925-2.904,0-3
						c-37.274-1.852-74.464-5.377-111.413-10.63c-17.725-2.52-35.721-4.874-53.152-9.025c-8.116-1.933-16.128-4.565-23.348-8.814
						c-6.585-3.875-12.296-9.058-18.923-12.866c-6.642-3.816-13.831-5.348-21.443-5.487c-7.846-0.144-15.685,0.887-23.528,0.4
						c-3.848-0.239-7.688-0.896-11.293-2.298c-3.939-1.531-7.363-4.079-10.698-6.62c-6.014-4.581-12.099-8.438-19.506-10.312
						c-13.932-3.525-28.77-0.637-41.707,5.065c-14.4,6.347-26.423,16.839-37.708,27.594c-11.66,11.111-22.816,23.049-36.195,32.15
						c-12.908,8.779-28.256,15.5-44.151,14.864c-3.889-0.156-7.702-0.806-11.441-1.874
						C350.397,432.764,349.603,435.658,351.459,436.188L351.459,436.188z"/>
				</g>
			</g>
			<g>
				<g>
					
						<linearGradient id="SVGID_00000034800389732699731460000016047184281549560201_" gradientUnits="userSpaceOnUse" x1="358.4388" y1="380.7266" x2="841.1043" y2="380.7266">
						<stop  offset="0" style="stop-color:#FE8EDC"/>
						<stop  offset="0.9995" style="stop-color:#1745EB"/>
					</linearGradient>
					<path style="fill:url(#SVGID_00000034800389732699731460000016047184281549560201_);" d="M358.938,422.312
						c14.244-2.962,27.874-8.37,39.681-16.957c9.503-6.911,17.467-15.485,25.324-24.154c7.556-8.337,15.249-16.706,24.712-22.929
						c6.464-4.25,13.634-7.398,20.902-9.993c9.1-3.249,18.62-5.458,28.281-6.026c9.589-0.563,18.986,0.709,28.208,3.32
						c8.935,2.53,17.567,5.99,26.395,8.849c8.697,2.817,17.548,4.874,26.71,5.22c9.498,0.358,19.105-0.662,28.542,0.806
						c9.597,1.493,17.026,6.49,24.733,12.047c7.239,5.22,14.906,9.677,23.099,13.229c16.151,7.002,33.489,10.675,50.931,12.585
						c39.518,4.329,79.44-0.995,118.914,4.005c5.109,0.647,10.189,1.492,15.234,2.52c1.885,0.384,2.691-2.507,0.798-2.893
						c-39.929-8.133-80.716-3.039-121.068-5.468c-17.989-1.083-36.037-3.664-53.158-9.46c-8.631-2.922-16.973-6.683-24.762-11.424
						c-7.7-4.686-14.493-11.007-22.747-14.743c-8.42-3.812-17.68-4.24-26.784-4.19c-9.57,0.053-18.945,0.193-28.34-1.947
						c-17.942-4.087-34.515-13.073-52.959-15.121c-18.836-2.091-37.835,2.794-54.813,10.749
						c-10.663,4.996-19.605,12.433-27.7,20.891c-7.9,8.254-15.162,17.116-23.67,24.775c-10.214,9.195-22.075,16.116-35.184,20.288
						c-3.966,1.262-8.001,2.28-12.076,3.127C356.251,419.812,357.051,422.704,358.938,422.312L358.938,422.312z"/>
				</g>
			</g>
		</g>
	</g>
</g>
</svg>
